<svg version="1.1" id="Layer_1" xmlns="http://www.w3.org/2000/svg" xmlns:xlink="http://www.w3.org/1999/xlink" x="0px" y="0px"
	 width="100%" viewBox="0 0 360 450" enable-background="new 0 0 360 450" xml:space="preserve">
<path fill="#F23B34" opacity="1.000000" stroke="none" 
	d="
M361.000000,45.000000 
	C361.000000,165.355972 361.000000,285.711945 360.531311,406.534729 
	C240.375107,407.001038 120.687553,407.000519 1.000000,407.000000 
	C1.000000,286.644043 1.000000,166.288055 1.375376,45.575428 
	C2.171444,45.459305 2.590866,45.907127 3.013016,45.909714 
	C11.207167,45.959919 19.404217,46.089958 27.595314,45.929752 
	C35.723396,45.770782 43.845581,45.051849 51.970299,45.052811 
	C59.930614,45.053757 67.888474,45.785873 75.852211,45.928326 
	C79.452248,45.992722 83.059525,45.311615 86.671654,45.143196 
	C89.839851,44.995476 93.023407,44.984859 96.193100,45.103149 
	C101.977013,45.318996 107.756546,45.923607 113.536308,45.903599 
	C119.487724,45.882996 125.434166,45.118862 131.388260,45.023991 
	C140.599060,44.877220 149.814560,45.008656 159.027939,45.051960 
	C162.187408,45.066807 165.347260,45.144932 168.505539,45.240387 
	C174.459641,45.420345 180.413757,45.815399 186.365952,45.781654 
	C192.157501,45.748825 197.944412,45.139851 203.737350,45.054539 
	C212.951218,44.918842 222.168411,44.994083 231.384140,45.009880 
	C234.388626,45.015030 237.394424,45.071697 240.397049,45.177425 
	C246.349396,45.387009 252.300842,45.852718 258.251038,45.827717 
	C264.038879,45.803402 269.826935,45.022263 275.610840,45.069740 
	C283.737244,45.136452 291.859619,45.913147 299.984161,45.921337 
	C308.440643,45.929859 316.897705,45.147987 325.354462,45.149376 
	C333.981110,45.150791 342.606049,45.802525 351.235199,45.924358 
	C354.485138,45.970249 357.744781,45.328350 361.000000,45.000000 
M279.049988,243.332214 
	C275.535461,251.187195 269.870880,257.099548 262.625000,261.612488 
	C245.217667,272.454193 218.324646,268.194000 206.348846,247.718613 
	C198.050598,233.530838 197.734833,219.324219 206.183624,205.161148 
	C207.946167,202.206512 207.756378,200.300339 205.263428,197.881866 
	C197.378906,190.232910 189.649750,182.419464 181.995682,174.538361 
	C170.583496,162.787689 157.837173,153.576172 141.745987,148.761200 
	C98.349533,135.775696 49.741096,164.447617 41.185574,208.941376 
	C35.352695,239.275818 43.358105,265.719574 66.545303,286.280060 
	C90.086143,307.154144 117.648476,311.595581 147.331436,301.774902 
	C155.930206,298.929932 163.960510,294.488678 170.842392,287.882904 
	C161.254822,278.489288 152.034470,269.455475 142.794601,260.402527 
	C125.542503,272.106689 100.437920,269.746063 86.745155,250.984985 
	C75.123573,235.061737 74.227127,216.931885 87.453781,200.641647 
	C101.001823,183.955566 124.569862,180.182510 140.464996,190.311661 
	C150.368881,196.622879 156.799576,205.202103 159.885040,216.485306 
	C163.359680,229.191605 159.503983,240.431580 152.304443,252.266098 
	C161.811310,261.315521 171.441025,270.251312 180.803940,279.458374 
	C190.397186,288.891968 200.769745,297.149750 213.563904,301.732056 
	C250.117401,314.823975 289.127838,301.195801 309.826080,268.262787 
	C327.781158,239.694397 325.607269,202.104843 304.499207,176.152191 
	C281.596252,147.992676 245.552109,138.261215 211.729721,151.413086 
	C204.050507,154.399185 196.677124,158.250549 190.461166,164.526810 
	C199.286484,173.564987 207.758743,182.247757 216.245728,190.916107 
	C216.695251,191.375244 217.269211,191.712585 217.970200,192.247864 
	C218.977570,191.631516 219.951523,191.040741 220.920532,190.441986 
	C234.242859,182.210205 256.511139,182.027771 270.623535,196.890869 
	C283.130524,210.063171 286.090546,225.538345 279.049988,243.332214 
z"/>
<path fill="#000000" opacity="1.000000" stroke="none" 
	d="
M361.000000,44.531342 
	C357.744781,45.328350 354.485138,45.970249 351.235199,45.924358 
	C342.606049,45.802525 333.981110,45.150791 325.354462,45.149376 
	C316.897705,45.147987 308.440643,45.929859 299.984161,45.921337 
	C291.859619,45.913147 283.737244,45.136452 275.610840,45.069740 
	C269.826935,45.022263 264.038879,45.803402 258.251038,45.827717 
	C252.300842,45.852718 246.349396,45.387009 240.397049,45.177425 
	C237.394424,45.071697 234.388626,45.015030 231.384140,45.009880 
	C222.168411,44.994083 212.951218,44.918842 203.737350,45.054539 
	C197.944412,45.139851 192.157501,45.748825 186.365952,45.781654 
	C180.413757,45.815399 174.459641,45.420345 168.505539,45.240387 
	C165.347260,45.144932 162.187408,45.066807 159.027939,45.051960 
	C149.814560,45.008656 140.599060,44.877220 131.388260,45.023991 
	C125.434166,45.118862 119.487724,45.882996 113.536308,45.903599 
	C107.756546,45.923607 101.977013,45.318996 96.193100,45.103149 
	C93.023407,44.984859 89.839851,44.995476 86.671654,45.143196 
	C83.059525,45.311615 79.452248,45.992722 75.852211,45.928326 
	C67.888474,45.785873 59.930614,45.053757 51.970299,45.052811 
	C43.845581,45.051849 35.723396,45.770782 27.595314,45.929752 
	C19.404217,46.089958 11.207167,45.959919 3.013016,45.909714 
	C2.590866,45.907127 2.171444,45.459305 1.375376,45.109386 
	C1.000000,30.347666 1.000000,15.695332 1.000004,1.047678 
	C121.000008,1.052358 241.000015,1.052358 361.000000,1.052358 
	C361.000000,15.424038 361.000000,29.743361 361.000000,44.531342 
z"/>
<path fill="#000000" opacity="1.000000" stroke="none" 
	d="
M1.000000,407.468658 
	C120.687553,407.000519 240.375107,407.001038 360.531311,407.000793 
	C361.000000,421.652344 361.000000,436.304657 361.000000,450.952332 
	C240.999985,450.947632 120.999985,450.947632 1.000000,450.947632 
	C1.000000,436.575928 1.000000,422.256622 1.000000,407.468658 
z"/>
<path fill="#FEFCFC" opacity="1.000000" stroke="none" 
	d="
M279.195496,242.977783 
	C286.090546,225.538345 283.130524,210.063171 270.623535,196.890869 
	C256.511139,182.027771 234.242859,182.210205 220.920532,190.441986 
	C219.951523,191.040741 218.977570,191.631516 217.970200,192.247864 
	C217.269211,191.712585 216.695251,191.375244 216.245728,190.916107 
	C207.758743,182.247757 199.286484,173.564987 190.461166,164.526810 
	C196.677124,158.250549 204.050507,154.399185 211.729721,151.413086 
	C245.552109,138.261215 281.596252,147.992676 304.499207,176.152191 
	C325.607269,202.104843 327.781158,239.694397 309.826080,268.262787 
	C289.127838,301.195801 250.117401,314.823975 213.563904,301.732056 
	C200.769745,297.149750 190.397186,288.891968 180.803940,279.458374 
	C171.441025,270.251312 161.811310,261.315521 152.304443,252.266098 
	C159.503983,240.431580 163.359680,229.191605 159.885040,216.485306 
	C156.799576,205.202103 150.368881,196.622879 140.464996,190.311661 
	C124.569862,180.182510 101.001823,183.955566 87.453781,200.641647 
	C74.227127,216.931885 75.123573,235.061737 86.745155,250.984985 
	C100.437920,269.746063 125.542503,272.106689 142.794601,260.402527 
	C152.034470,269.455475 161.254822,278.489288 170.842392,287.882904 
	C163.960510,294.488678 155.930206,298.929932 147.331436,301.774902 
	C117.648476,311.595581 90.086143,307.154144 66.545303,286.280060 
	C43.358105,265.719574 35.352695,239.275818 41.185574,208.941376 
	C49.741096,164.447617 98.349533,135.775696 141.745987,148.761200 
	C157.837173,153.576172 170.583496,162.787689 181.995682,174.538361 
	C189.649750,182.419464 197.378906,190.232910 205.263428,197.881866 
	C207.756378,200.300339 207.946167,202.206512 206.183624,205.161148 
	C197.734833,219.324219 198.050598,233.530838 206.348846,247.718613 
	C218.324646,268.194000 245.217667,272.454193 262.625000,261.612488 
	C269.870880,257.099548 275.535461,251.187195 279.195496,242.977783 
z"/>
</svg>