<svg xmlns="http://www.w3.org/2000/svg" width="608" height="200" viewBox="0 0 608 200" fill="none"><path fill-rule="evenodd" clip-rule="evenodd" d="M83.2072 0.000488281C137.4 0.000488281 164.648 28.9961 164.648 28.9961C164.648 28.9961 167.764 50.4588 165.775 93.6744C162.771 158.956 83.2262 198.162 83.2194 198.166C83.2126 198.169 3.66811 158.956 0.663623 93.6744C-1.3254 50.4588 1.79064 28.9961 1.79064 28.9961C1.79064 28.9961 29.0142 0.000488281 83.2072 0.000488281Z" fill="#ED2E26"></path><path fill-rule="evenodd" clip-rule="evenodd" d="M232.55 47.6668C232.55 66.384 247.777 81.6113 266.495 81.6113C285.213 81.6113 300.44 66.384 300.44 47.6668C300.44 28.9503 285.213 13.7223 266.495 13.7223C247.777 13.7223 232.55 28.9503 232.55 47.6668ZM218.827 47.6668C218.827 21.3836 240.211 0 266.495 0C292.779 0 313.921 21.3843 314.163 47.6668C314.352 68.3223 300.2 87.3911 280.894 92.8058C277.18 93.8476 275.33 93.9227 275.33 93.9227C275.33 93.9227 281.957 96.3964 296.408 98.8898C294.72 102.451 289.415 107.65 286.611 109.191C266.997 105.926 250.009 98.8824 238.163 88.6648C225.514 77.7536 218.827 63.5769 218.827 47.6668ZM514.003 26.8481L530.103 69.568L546.418 26.8481H560.767C560.767 26.8481 536.866 86.595 530.003 103.492C527.076 110.696 519.597 111.179 512.76 111.179C512.756 111.181 523.148 86.4781 523.148 86.4781L499.657 26.8481H514.003ZM476.292 90.8789C476.292 90.8789 489.606 90.6321 489.606 81.5971V0.445498H476.292V90.8789ZM408.451 58.2112C408.637 73.0119 420.68 78.3847 428.73 78.3847C436.875 78.3847 443.609 74.0862 446.745 66.886C447.973 64.323 448.675 61.3253 448.788 58.1856C448.897 55.0952 448.311 52.1178 447.091 49.5771C443.988 42.0625 437.049 37.6037 428.508 37.6037C417.074 37.6037 408.451 46.4178 408.451 58.1051V58.2112ZM427.061 25.0679C437.725 25.0679 444.968 30.0871 448.675 35.2584V26.848H461.991V81.6042C461.991 90.6677 448.675 90.8786 448.675 90.8786V80.7706C444.087 87.1798 436.233 90.9212 427.061 90.9212C417.594 90.9212 409.475 87.4732 403.583 80.9504C398.135 74.9198 395.136 66.767 395.136 57.9936C395.136 39.2229 408.861 25.0679 427.061 25.0679ZM370.874 61.5562C370.874 72.3085 365.289 78.2857 355.159 78.3851C344.884 78.3851 339.888 72.5526 339.888 60.5549V26.8484H326.574V63.2261C326.574 68.4765 327.458 75.9647 331.676 81.8223C335.986 87.8076 342.8 90.8689 351.922 90.9216C352.046 90.923 352.171 90.9236 352.296 90.9236C363.206 90.9236 368.825 85.9774 371.542 82.1339V90.879C371.542 90.879 384.189 90.6633 384.189 82.0488V26.8484H370.874V61.5562ZM580.829 42.562C580.74 46.5745 585.772 49.1612 592.691 52.1522C605.664 58.3985 608.118 65.3539 607.996 70.9532C607.739 82.5858 598.089 91.4897 586.025 91.224C576.445 91.0124 566.856 84.2253 561.788 72.5697L561.834 72.5549C564.324 71.7527 572.224 69.2075 577.382 74.6054C580.049 77.3962 582.863 79.3778 586.29 79.1757C590.95 78.8998 594.547 76.1117 594.641 71.8105C594.702 69.0663 593.498 67.7337 590.947 65.9496L579.889 59.7324C573.17 55.922 568.047 52.3117 568.24 43.5653C568.462 33.4681 576.973 25.4363 587.212 25.6615C594.392 25.8197 600.793 29.3326 604.562 35.5714C603.682 36.2373 596.407 42.4552 596.407 42.4552C594.797 40.3087 591.912 37.6246 588.02 37.4908C584.384 37.365 580.888 39.9071 580.829 42.562Z" fill="#566B7D"></path><path fill-rule="evenodd" clip-rule="evenodd" d="M42.5418 85.8143C42.5418 62.7317 60.7898 43.953 83.2193 43.953C105.668 43.953 123.931 62.2158 123.931 84.6636C123.931 102.585 108.526 117.329 96.6523 124.906C101.258 127.534 111.424 130.293 121.157 131.185C135.369 120.186 144.037 103.183 144.037 84.6636C144.037 51.1289 116.755 23.8464 83.2193 23.8464C49.6845 23.8464 22.4021 51.1289 22.4021 84.6636C22.4021 104.918 30.8355 122.91 46.7896 136.698C61.7058 149.587 83.5249 158.191 108.367 162.264C113.75 159.29 122.954 150.509 126.406 145.369C105.658 142.701 86.0223 137.641 72.8591 130.736C52.7424 120.183 42.5418 105.069 42.5418 85.8143Z" fill="white"></path><path d="M280.914 152.967L267.766 154.402C267.394 153.074 266.743 151.825 265.814 150.657C264.911 149.488 263.689 148.545 262.148 147.828C260.607 147.11 258.722 146.752 256.49 146.752C253.489 146.752 250.965 147.403 248.92 148.704C246.901 150.006 245.905 151.692 245.932 153.764C245.905 155.544 246.556 156.992 247.884 158.107C249.239 159.223 251.47 160.139 254.578 160.856L265.017 163.088C270.807 164.336 275.11 166.315 277.926 169.024C280.768 171.734 282.202 175.28 282.229 179.662C282.202 183.514 281.074 186.914 278.842 189.862C276.638 192.784 273.57 195.068 269.639 196.715C265.707 198.362 261.192 199.186 256.092 199.186C248.601 199.186 242.572 197.618 238.003 194.484C233.434 191.323 230.712 186.927 229.835 181.296L243.9 179.941C244.537 182.704 245.892 184.789 247.964 186.197C250.036 187.604 252.732 188.308 256.052 188.308C259.479 188.308 262.228 187.604 264.3 186.197C266.398 184.789 267.447 183.049 267.447 180.977C267.447 179.224 266.77 177.776 265.415 176.634C264.087 175.492 262.015 174.616 259.2 174.005L248.761 171.813C242.89 170.591 238.548 168.533 235.732 165.638C232.916 162.716 231.522 159.024 231.548 154.561C231.522 150.789 232.545 147.522 234.616 144.76C236.715 141.971 239.623 139.819 243.342 138.305C247.087 136.765 251.404 135.994 256.291 135.994C263.463 135.994 269.107 137.522 273.224 140.576C277.368 143.631 279.931 147.761 280.914 152.967Z" fill="#566B7D"></path><path d="M342.492 152.967L329.344 154.402C328.972 153.074 328.321 151.825 327.391 150.657C326.488 149.488 325.266 148.545 323.726 147.828C322.185 147.11 320.299 146.752 318.068 146.752C315.066 146.752 312.543 147.403 310.498 148.704C308.479 150.006 307.483 151.692 307.51 153.764C307.483 155.544 308.134 156.992 309.462 158.107C310.817 159.223 313.048 160.139 316.156 160.856L326.594 163.088C332.385 164.336 336.688 166.315 339.504 169.024C342.346 171.734 343.78 175.28 343.807 179.662C343.78 183.514 342.651 186.914 340.42 189.862C338.215 192.784 335.147 195.068 331.216 196.715C327.285 198.362 322.769 199.186 317.67 199.186C310.179 199.186 304.149 197.618 299.581 194.484C295.012 191.323 292.289 186.927 291.413 181.296L305.478 179.941C306.115 182.704 307.47 184.789 309.542 186.197C311.613 187.604 314.309 188.308 317.63 188.308C321.056 188.308 323.805 187.604 325.877 186.197C327.976 184.789 329.025 183.049 329.025 180.977C329.025 179.224 328.348 177.776 326.993 176.634C325.665 175.492 323.593 174.616 320.777 174.005L310.338 171.813C304.468 170.591 300.125 168.533 297.31 165.638C294.494 162.716 293.1 159.024 293.126 154.561C293.1 150.789 294.122 147.522 296.194 144.76C298.292 141.971 301.201 139.819 304.92 138.305C308.665 136.765 312.981 135.994 317.869 135.994C325.041 135.994 330.685 137.522 334.802 140.576C338.946 143.631 341.509 147.761 342.492 152.967Z" fill="#566B7D"></path><path d="M370.123 116.391V197.99H355.7V116.391H370.123Z" fill="#566B7D"></path><path d="M399.378 116.391V197.99H384.955V116.391H399.378Z" fill="#566B7D"></path><path d="M431.82 199.225C427.942 199.225 424.449 198.535 421.342 197.154C418.26 195.746 415.817 193.674 414.01 190.938C412.231 188.202 411.341 184.829 411.341 180.818C411.341 177.365 411.978 174.509 413.253 172.252C414.528 169.994 416.268 168.188 418.473 166.833C420.678 165.478 423.161 164.456 425.924 163.765C428.713 163.048 431.595 162.53 434.57 162.211C438.155 161.839 441.064 161.507 443.295 161.215C445.526 160.896 447.147 160.418 448.156 159.781C449.192 159.117 449.71 158.094 449.71 156.713V156.474C449.71 153.472 448.82 151.148 447.04 149.501C445.261 147.854 442.698 147.031 439.351 147.031C435.818 147.031 433.016 147.801 430.944 149.342C428.898 150.882 427.517 152.702 426.8 154.8L413.333 152.888C414.396 149.169 416.149 146.061 418.592 143.564C421.036 141.041 424.024 139.155 427.557 137.907C431.09 136.632 434.995 135.994 439.271 135.994C442.219 135.994 445.155 136.34 448.076 137.03C450.998 137.721 453.668 138.863 456.085 140.457C458.502 142.024 460.441 144.162 461.902 146.871C463.389 149.581 464.133 152.967 464.133 157.031V197.99H450.268V189.583H449.79C448.913 191.283 447.678 192.877 446.084 194.364C444.517 195.825 442.538 197.007 440.148 197.911C437.784 198.787 435.008 199.225 431.82 199.225ZM435.566 188.627C438.461 188.627 440.971 188.056 443.096 186.914C445.221 185.745 446.855 184.204 447.997 182.292C449.165 180.38 449.75 178.294 449.75 176.037V168.825C449.298 169.197 448.528 169.542 447.439 169.861C446.376 170.18 445.181 170.459 443.853 170.698C442.525 170.937 441.21 171.149 439.909 171.335C438.607 171.521 437.478 171.68 436.522 171.813C434.37 172.105 432.445 172.584 430.745 173.248C429.045 173.912 427.703 174.841 426.72 176.037C425.738 177.205 425.246 178.719 425.246 180.579C425.246 183.235 426.216 185.24 428.155 186.595C430.094 187.95 432.564 188.627 435.566 188.627Z" fill="#566B7D"></path><path d="M479.274 197.99V116.391H493.697V146.911H494.294C495.038 145.424 496.087 143.843 497.442 142.17C498.797 140.47 500.63 139.022 502.94 137.827C505.251 136.605 508.2 135.994 511.786 135.994C516.514 135.994 520.777 137.203 524.575 139.62C528.4 142.011 531.428 145.557 533.66 150.258C535.917 154.933 537.046 160.67 537.046 167.47C537.046 174.191 535.944 179.901 533.739 184.603C531.535 189.304 528.533 192.89 524.735 195.361C520.936 197.831 516.633 199.066 511.826 199.066C508.319 199.066 505.411 198.482 503.1 197.313C500.789 196.144 498.93 194.736 497.522 193.09C496.141 191.416 495.065 189.836 494.294 188.348H493.458V197.99H479.274ZM493.418 167.391C493.418 171.348 493.976 174.815 495.091 177.79C496.234 180.765 497.867 183.089 499.992 184.762C502.144 186.409 504.747 187.233 507.801 187.233C510.989 187.233 513.658 186.383 515.81 184.683C517.961 182.956 519.582 180.605 520.671 177.63C521.786 174.629 522.344 171.216 522.344 167.391C522.344 163.592 521.8 160.219 520.711 157.27C519.621 154.322 518.001 152.011 515.85 150.338C513.698 148.664 511.015 147.828 507.801 147.828C504.72 147.828 502.104 148.638 499.952 150.258C497.801 151.878 496.167 154.149 495.052 157.071C493.962 159.993 493.418 163.433 493.418 167.391Z" fill="#566B7D"></path><path d="M597.678 152.967L584.529 154.402C584.158 153.074 583.507 151.825 582.577 150.657C581.674 149.488 580.452 148.545 578.911 147.828C577.371 147.11 575.485 146.752 573.254 146.752C570.252 146.752 567.729 147.403 565.684 148.704C563.665 150.006 562.669 151.692 562.695 153.764C562.669 155.544 563.32 156.992 564.648 158.107C566.002 159.223 568.234 160.139 571.341 160.856L581.78 163.088C587.571 164.336 591.874 166.315 594.689 169.024C597.532 171.734 598.966 175.28 598.992 179.662C598.966 183.514 597.837 186.914 595.606 189.862C593.401 192.784 590.333 195.068 586.402 196.715C582.471 198.362 577.955 199.186 572.855 199.186C565.365 199.186 559.335 197.618 554.767 194.484C550.198 191.323 547.475 186.927 546.599 181.296L560.663 179.941C561.301 182.704 562.655 184.789 564.727 186.197C566.799 187.604 569.495 188.308 572.815 188.308C576.242 188.308 578.991 187.604 581.063 186.197C583.161 184.789 584.211 183.049 584.211 180.977C584.211 179.224 583.533 177.776 582.179 176.634C580.851 175.492 578.779 174.616 575.963 174.005L565.524 171.813C559.654 170.591 555.311 168.533 552.495 165.638C549.68 162.716 548.285 159.024 548.312 154.561C548.285 150.789 549.308 147.522 551.38 144.76C553.478 141.971 556.387 139.819 560.105 138.305C563.851 136.765 568.167 135.994 573.055 135.994C580.226 135.994 585.871 137.522 589.988 140.576C594.132 143.631 596.695 147.761 597.678 152.967Z" fill="#566B7D"></path></svg>