<?xml version="1.0" encoding="UTF-8" standalone="no"?>
<!-- Created with Inkscape (http://www.inkscape.org/) -->

<svg
   version="1.1"
   id="svg2"
   width="960"
   height="960"
   viewBox="0 0 960 960"
   sodipodi:docname="TORQ-Torq Pink Skull Vector_L1R1.ai"
   xmlns:inkscape="http://www.inkscape.org/namespaces/inkscape"
   xmlns:sodipodi="http://sodipodi.sourceforge.net/DTD/sodipodi-0.dtd"
   xmlns="http://www.w3.org/2000/svg"
   xmlns:svg="http://www.w3.org/2000/svg">
  <defs
     id="defs6">
    <clipPath
       clipPathUnits="userSpaceOnUse"
       id="clipPath16">
      <path
         d="M 0,720 H 720 V 0 H 0 Z"
         id="path14" />
    </clipPath>
  </defs>
  <sodipodi:namedview
     id="namedview4"
     pagecolor="#ffffff"
     bordercolor="#000000"
     borderopacity="0.25"
     inkscape:showpageshadow="2"
     inkscape:pageopacity="0.0"
     inkscape:pagecheckerboard="0"
     inkscape:deskcolor="#d1d1d1" />
  <g
     id="g8"
     inkscape:groupmode="layer"
     inkscape:label="TORQ-Torq Pink Skull Vector_L1R1"
     transform="matrix(1.3333333,0,0,-1.3333333,0,960)">
    <g
       id="g10">
      <g
         id="g12"
         clip-path="url(#clipPath16)">
        <g
           id="g18"
           transform="translate(701.2735,425.915)">
          <path
             d="m 0,0 c -1.058,4.057 -2.056,7.889 -2.86,12.761 -1.028,6.161 -1.459,11.844 -1.916,17.862 -0.766,10.08 -1.633,21.505 -5.528,34.659 -16.091,54.918 -40.02,98.659 -71.108,129.995 -33.33,33.648 -81.589,40.636 -113.524,45.26 -7.756,1.123 -18.312,2.651 -21.665,3.883 -19.432,10.649 -74.225,22.888 -89.136,24.782 -6.777,0.857 -14.118,1.292 -21.822,1.292 -20.301,0 -37.694,-2.907 -46.254,-4.64 -13.783,-2.79 -36.85,-7.458 -40.378,-28.796 -1.349,-8.156 1.067,-16.157 6.113,-22.204 -4.783,-0.882 -8.554,-1.632 -10.664,-2.132 -5.094,-1.208 -8.728,-2.225 -11.381,-2.967 -1.1,-0.308 -2.426,-0.678 -3.12,-0.846 -2.234,0.102 -8.846,1.115 -15.235,2.093 -9.533,1.466 -16.857,2.12 -23.75,2.12 -7.623,0 -14.644,-0.756 -24.236,-2.611 -0.146,-0.029 -0.294,-0.058 -0.44,-0.089 -8.813,-1.857 -16.356,-7.835 -20.176,-15.99 -3.816,-8.147 -3.582,-17.755 0.626,-25.703 0.081,-0.153 0.164,-0.306 0.248,-0.458 1.047,-1.888 2.21,-3.49 3.405,-4.866 -0.463,-0.104 -0.928,-0.208 -1.379,-0.307 -3.924,-0.847 -8.21,-1.225 -13.893,-1.225 -3.026,0 -6.198,0.101 -9.556,0.207 -3.776,0.12 -7.683,0.243 -11.867,0.243 -4.148,0 -7.966,-0.125 -11.638,-0.383 l -46.074,-0.37 c -12.688,-0.078 -23.971,-8.626 -27.477,-20.841 -3.489,-12.16 1.493,-25.328 12.12,-32.144 l 1.353,-0.875 c 8.937,-5.779 18.178,-11.756 34.053,-16.481 3.73,-1.109 7.312,-1.954 10.777,-2.771 2.254,-0.532 5.241,-1.236 7.545,-1.905 0.258,-0.51 0.525,-1.001 0.803,-1.474 -0.678,-0.195 -1.331,-0.389 -1.961,-0.576 -2.342,-0.697 -4.555,-1.355 -7.776,-1.959 -0.083,-0.015 -0.325,-0.05 -0.789,-0.05 -2.255,0 -5.828,0.756 -9.611,1.555 -5.786,1.224 -12.986,2.747 -20.997,2.747 -2.014,0 -4.021,-0.096 -5.967,-0.287 -0.053,-0.006 -0.108,-0.011 -0.162,-0.017 -5.85,-0.61 -10.359,-2.012 -13.651,-3.036 -1.132,-0.352 -1.972,-0.611 -2.655,-0.788 l -11.553,-0.379 c -0.22,-0.007 -0.439,-0.017 -0.658,-0.03 -11.845,-0.678 -22.088,-8.345 -26.096,-19.532 -4.008,-11.185 -0.962,-23.613 7.697,-31.604 5.087,-4.725 10.848,-9.559 18.576,-13.23 -0.811,-0.249 -1.585,-0.484 -2.295,-0.701 -7.651,-2.33 -15.52,-4.727 -22.627,-8.284 -1.263,-0.494 -2.497,-1.086 -3.687,-1.775 -9.37,-5.421 -14.85,-15.517 -14.3,-26.349 0.541,-10.651 6.819,-20.002 16.424,-24.518 7.274,-3.467 15.331,-5.893 23.857,-8.462 7.286,-2.194 22.052,-6.642 26.302,-10.328 2.109,-6.293 5.85,-10.139 7.647,-11.986 0.099,-0.102 0.203,-0.207 0.303,-0.307 2.18,-2.171 4.615,-3.933 7.274,-5.268 2.93,-1.535 6.154,-2.703 9.805,-3.538 0.684,-1.162 1.455,-2.268 2.302,-3.313 -8.012,-1.739 -15.186,-3.59 -20.123,-5.416 -0.036,-0.013 -0.072,-0.026 -0.108,-0.04 -11.117,-4.165 -18.44,-14.529 -18.654,-26.404 -0.214,-11.904 6.751,-22.555 17.747,-27.134 0.171,-0.071 0.343,-0.141 0.516,-0.209 9.197,-3.609 18.98,-8.576 26.104,-12.827 0.739,-9.383 6.068,-18.232 14.937,-23.059 0.179,-0.099 0.366,-0.211 0.556,-0.329 -0.648,-0.007 -1.281,-0.018 -1.858,-0.038 -14.239,-0.443 -25.868,-11.02 -27.652,-25.149 -0.936,-7.41 0.997,-14.547 5.021,-20.231 -7.326,-5.288 -11.853,-13.837 -11.853,-23.312 0,-12.656 8.073,-23.663 20.109,-27.448 2.572,-0.816 5.103,-1.533 7.551,-2.227 2.971,-0.842 5.777,-1.637 7.854,-2.38 2.389,-0.862 5.223,-2.276 8.506,-3.913 6.422,-3.204 14.383,-7.159 24.344,-9.583 -2.987,-4.055 -4.847,-8.934 -5.207,-14.149 -0.694,-10.087 4.305,-19.716 12.953,-24.952 l 29.919,-18.113 c 0.683,-0.453 1.352,-0.901 2.011,-1.342 10.343,-6.922 22.064,-14.766 43.079,-17.558 12.653,-1.735 25.454,-4.972 39.006,-8.399 15.42,-3.9 31.364,-7.933 47.76,-9.77 8.287,-0.913 15.397,-1.356 21.737,-1.356 13.27,0 22.222,1.961 30.018,4.331 0.215,-0.409 0.443,-0.814 0.681,-1.213 4.871,-8.166 13.679,-13.168 23.188,-13.168 7.819,0 15.576,0.445 23.077,0.874 6.368,0.365 12.953,0.742 19.34,0.825 20.648,0.255 27.954,2.703 40.851,8.652 1.845,0.851 3.752,1.73 6.046,2.735 12.287,5.401 17.353,6.119 23.767,7.028 12.372,1.752 23.705,4.035 47.075,15.824 l 63.973,30.702 c 6.646,3.219 23.444,11.897 35.947,22.976 10.304,9.078 21.325,25.035 21.421,42.663 0.043,7.805 -2.058,15.182 -6.021,21.562 0.821,3.128 1.334,6.298 1.451,9.485 0.365,10.053 -2.943,19.242 -9.379,26.406 0.037,0.308 0.081,0.617 0.107,0.925 8.525,7.654 17.94,19.08 19.725,34.167 1.087,9.194 -0.951,18.312 -5.786,26.366 0.203,0.645 0.393,1.291 0.572,1.938 3.731,13.509 1.802,26.83 -5.24,38.126 11.008,20.031 15.437,42.973 19.36,63.301 C 6.314,-24.229 3.104,-11.911 0,0"
             style="fill:#00000b;fill-opacity:1;fill-rule:nonzero;stroke:none"
             id="path20" />
        </g>
        <g
           id="g22"
           transform="translate(643.3898,183.0585)">
          <path
             d="m 0,0 c -14.635,-23.868 -54.142,-44.407 -79.141,-54.394 -30.274,-12.059 -31.342,-9.421 -55.963,-16.645 -6.408,-1.884 -46.669,-2.261 -57.912,-14.195 12.374,-0.816 21.921,2.701 33.478,5.151 46.354,9.672 30.4,-8.166 88.5,20.413 17.901,8.856 38.691,12.248 54.016,23.24 6.281,4.522 41.707,37.246 26.695,49.809 C 4.523,10.678 3.769,6.155 0.063,0.063 Z"
             style="fill:#ff27a8;fill-opacity:1;fill-rule:nonzero;stroke:none"
             id="path24" />
        </g>
        <g
           id="g26"
           transform="translate(534.3513,295.4257)">
          <path
             d="M 0,0 C -1.57,3.643 -2.01,3.015 -0.502,8.417 7.349,9.673 27.323,7.349 36.932,5.841 34.231,2.701 32.159,2.01 28.013,0.628 c -6.72,-2.261 -6.909,-1.319 -9.295,-5.15 9.17,-3.643 10.237,-2.826 19.596,-3.706 -14.447,-10.489 -47.735,-6.532 -68.086,2.073 6.532,4.02 18.215,2.324 29.772,6.218 z m 87.118,46.919 c -14.321,0.942 -47.297,-6.029 -58.916,2.387 1.256,5.59 5.025,5.904 11.054,7.161 14.133,2.952 32.976,1.821 45.852,3.894 32.033,5.276 43.653,21.356 47.987,22.8 -0.628,-3.329 -1.696,-6.846 -1.696,-10.112 -0.063,-5.402 -0.126,0.816 0.502,-4.648 2.575,-22.298 -32.221,-68.903 -79.58,-58.037 3.078,1.633 17.461,6.783 20.916,7.349 -0.942,1.067 -1.382,1.633 -1.508,1.947 0,-0.126 -0.376,-0.252 -1.633,0.251 -3.392,1.319 -0.314,0.314 -2.136,0.44 -0.062,0 -4.647,-0.691 -5.339,-0.88 C 38.691,15.012 3.957,14.321 -13.944,30.4 11.243,28.579 71.918,25.124 87.243,46.919 Z M 21.041,85.736 C 13.818,90.07 7.6,95.221 -0.188,98.989 10.113,102.381 19.848,97.544 30.149,94.969 39.508,92.583 51.504,92.834 63.25,90.321 96.791,83.161 97.481,85.359 126.311,86.05 119.026,75.561 98.612,70.474 85.736,68.338 76.503,66.767 69.405,66.893 59.984,67.71 c -5.151,0.439 -8.731,0.691 -13.819,1.758 -13.441,2.827 -10.363,5.213 -10.865,6.533 4.459,4.459 7.85,1.821 11.619,4.647 -9.987,6.219 -18.215,0.566 -25.815,5.088 z m -15.702,67.27 c 8.04,4.522 7.977,3.14 18.655,0.817 22.36,-4.837 38.942,-9.045 61.177,-16.708 16.204,-5.653 57.973,-22.109 52.635,-37.561 -10.489,-0.188 -19.346,5.465 -31.406,5.151 -9.358,-0.188 -19.91,1.508 -29.206,1.759 -14.132,0.377 -49.306,-2.952 -52.07,14.132 1.382,6.093 20.476,5.024 26.192,5.339 -1.821,2.575 -2.324,3.517 -6.658,4.648 -1.947,0.502 -5.025,0.502 -7.161,0.754 -4.71,0.502 -11.305,1.507 -15.702,3.266 -8.416,3.391 -5.464,4.836 -7.349,10.3 -2.387,7.035 -4.774,2.575 -9.107,8.166 z m 17.963,65.26 c 42.712,-5.904 43.591,-28.202 69.469,-38.942 0,7.474 -2.01,9.609 -5.905,14.257 -22.109,26.443 -64.694,38.064 -96.414,49.621 16.897,4.459 28.705,-1.885 46.166,-1.885 0.565,7.161 -2.198,9.233 -7.663,12.814 -6.469,4.208 -8.479,4.082 -10.678,10.174 31.218,-5.841 62.999,-21.292 84.732,-42.585 4.585,-4.459 14.886,-18.403 16.519,-19.471 l -12.059,2.324 4.27,-5.401 c 1.382,-1.445 2.387,-2.199 4.209,-4.209 2.952,-3.266 4.396,-5.841 6.344,-9.861 8.856,-18.152 0,-10.992 -5.339,-19.848 3.014,-11.055 15.954,-7.286 13.316,-34.609 -43.654,23.554 -21.042,15.012 -69.28,33.227 -12.249,4.585 -18.341,6.47 -15.703,14.321 16.456,-0.377 26.443,-9.547 43.842,-12.876 -6.03,9.672 -22.047,12.059 -34.923,25.501 -5.841,6.092 -6.281,10.364 -13.567,15.765 -5.213,3.894 -12.311,7.537 -17.21,11.683 z m -32.975,49.369 c 8.731,3.643 23.303,0.502 20.916,-12.939 -10.238,-1.571 -22.926,2.261 -20.916,12.939 M 9.17,284.28 c 8.731,0.125 6.03,0.188 9.61,7.16 l 14.258,-0.126 C 35.3,305.132 11.243,313.047 6.218,321.903 29.961,316.752 54.959,298.6 67.646,285.347 78.889,273.602 99.931,246.593 102.632,232.084 87.935,243.83 75.435,253 56.027,262.484 c -38.252,18.781 -50.248,7.915 -58.791,18.278 3.392,4.962 6.03,3.455 11.934,3.518 m -32.913,-415.176 -1.004,-0.44 c 0,0 0.879,0.377 1.004,0.44 m -91.703,-35.551 c 0.817,6.972 6.847,7.663 13.316,9.673 5.151,1.633 11.934,5.59 16.708,5.339 -4.774,-9.924 -17.273,-18.781 -30.024,-15.012 M 47.798,-15.263 c 28.077,14.949 59.293,15.075 77.257,46.543 9.359,16.393 13.316,36.681 17.147,56.529 4.774,24.873 -1.381,30.463 -4.773,51.002 -3.078,18.466 -1.57,31.97 -6.721,49.369 -12.625,43.088 -32.787,86.74 -64.38,118.586 -39.571,39.947 -110.986,34.294 -128.762,44.343 -13.755,7.789 -64.443,19.849 -79.768,21.796 -37.75,4.773 -86.678,-7.663 -77.257,-10.867 10.615,-3.643 27.888,-9.547 39.068,-7.16 1.57,0.314 2.136,2.261 0.942,3.329 -1.005,0.942 -2.072,1.633 -3.141,2.136 -1.193,0.565 -0.753,2.324 0.566,2.324 8.542,-0.189 18.906,0.565 30.337,-1.759 12.876,-2.638 27.699,0.377 38.817,-5.339 1.947,-1.005 1.445,-3.894 -0.691,-4.145 -11.369,-1.32 -30.337,-1.257 -42.208,-4.083 l -2.89,-1.194 c -1.005,-0.439 -0.879,-1.947 0.252,-2.135 27.008,-5.653 45.914,4.836 75.183,-4.397 17.336,-5.464 21.984,-5.464 40.324,-7.223 38.063,-3.706 74.054,-40.764 1.759,-49.181 -23.177,-2.7 -52.886,2.638 -69.845,-8.416 25.627,-3.329 69.154,-0.502 92.206,-11.055 -2.324,-9.735 -8.48,-12.499 -14.949,-14.697 3.454,-4.209 6.72,-3.015 8.731,-6.847 1.507,-2.826 0,-9.421 0.251,-12.687 7.098,-2.513 16.016,-2.952 23.993,-4.837 12.939,-3.077 9.861,-4.648 16.017,-11.243 7.914,-8.416 25.375,-13.002 21.418,-27.008 -3.078,-10.74 -15.577,-9.673 -23.177,-13.316 -11.117,-5.338 2.576,-5.967 -24.998,-9.861 -6.155,-0.879 -10.929,-3.078 -16.519,-3.957 9.233,-4.334 20.79,-6.658 25.563,-13.818 4.209,-6.282 -0.628,-5.025 6.47,-11.055 29.521,-25.249 -35.865,-26.694 -43.088,-29.835 13.567,-3.329 30.84,-4.773 37.937,-14.509 4.271,-5.904 2.701,-7.914 9.673,-13.504 4.774,-3.769 9.045,-5.465 12.814,-9.799 -2.638,-6.406 -6.282,-8.291 -10.678,-10.615 0.314,-5.275 4.333,-8.102 0.188,-12.938 -6.595,-7.726 -36.932,-1.822 -45.789,-0.377 0.88,-6.909 7.475,-16.394 6.533,-23.115 -1.131,-8.228 -12.437,-7.662 -18.655,-10.551 -8.04,-5.214 -1.822,-14.887 -27.888,-13.819 -25.877,1.005 -9.233,1.382 -35.425,-0.125 l 5.339,-4.146 c 1.193,-0.628 3.078,-0.942 5.213,-2.324 l 6.03,-6.909 c 13.63,-1.194 43.151,-14.572 45.852,-22.988 -7.537,-7.914 -35.111,-2.513 -54.582,-5.779 7.977,-5.213 11.933,-5.276 20.162,-12.311 5.024,-4.271 10.677,-10.929 14.446,-15.2 21.418,-24.433 17.147,-23.993 7.726,-38.314 11.997,-8.479 6.344,-20.477 -5.779,-25.753 -9.421,-4.145 -43.087,-9.672 -46.982,-12.247 -6.03,-4.02 -5.088,-4.774 -13.504,-7.977 -6.407,-2.45 -26.506,-5.528 -30.212,-9.924 4.46,-6.407 10.05,-6.658 15.2,-11.683 -8.793,-15.451 -48.112,-13.19 -70.033,-13.19 3.768,-14.258 -11.431,-14.698 -24.496,-14.069 -43.591,2.135 -47.359,15.262 -76.441,22.862 -9.798,2.576 -30.839,5.904 -38.564,2.576 l 30.399,-18.404 c 10.615,-7.034 18.09,-12.814 34.232,-14.949 29.395,-4.02 58.1,-14.949 86.113,-18.089 39.382,-4.334 39.193,4.083 69.405,10.112 16.457,3.266 21.23,1.131 38.566,0 14.948,-0.942 22.549,3.078 33.352,3.706 -9.547,-12.311 -36.179,-13.379 -51.944,-16.519 -8.166,-1.633 -12.876,-1.444 -16.708,-8.542 13.505,0 27.448,1.507 42.083,1.696 20.288,0.251 21.167,2.45 36.367,9.107 34.295,15.074 30.275,2.387 69.782,22.361 l 64.13,30.777 c 9.987,4.836 22.046,11.997 29.835,18.906 8.29,7.286 18.278,23.365 7.788,32.787 -4.899,-3.958 -8.479,-15.138 -13.127,-21.168 -18.844,-24.496 -31.405,-21.92 -57.032,-34.419 -34.42,-16.771 -46.668,-31.091 -89.441,-27.7 2.511,3.015 0.314,0.879 3.391,3.203 l 6.972,4.523 c -22.926,1.382 -42.46,-6.344 -64.569,-7.663 -8.417,-0.502 -15.766,2.01 -23.365,1.57 -19.346,-1.068 -41.141,-9.484 -60.863,-12.813 -29.835,-4.962 -27.134,12.185 -5.214,18.718 16.771,5.024 53.201,6.029 75.247,16.896 -5.339,7.599 -19.032,7.16 -25.438,13.755 54.644,-0.943 34.796,-14.51 97.481,2.261 13.881,3.706 23.366,6.03 26.757,8.73 l -18.214,5.654 c 16.33,2.386 26.442,3.957 42.02,8.354 13.755,3.893 25.626,8.164 38.126,13.566 20.978,9.108 52.948,22.109 58.036,56.844 l -8.857,-8.605 c -2.763,-3.769 -3.894,-7.098 -6.594,-11.181 -19.158,-29.018 -70.473,-45.349 -104.202,-48.741 -13.693,-1.381 -44.47,1.697 -44.093,-13.19 l 5.59,-3.957 c 2.198,-0.753 5.59,-1.13 7.914,-1.444 -9.359,-2.387 -35.739,-11.306 -43.716,-0.44 -1.696,10.426 15.828,16.707 24.245,18.969 13.064,3.58 21.104,2.449 35.236,3.706 15.389,1.381 49.934,9.107 61.303,22.171 -0.189,-0.439 -2.199,-0.377 -2.638,-0.439 l -9.798,-3.643 c -11.432,-5.841 -25.689,-11.808 -38.001,-5.213 0.063,19.533 19.409,14.006 44.282,15.263 36.618,1.884 53.514,23.114 77.508,46.353 1.57,1.571 33.101,19.912 17.335,37.687 -26.883,-23.931 -26.568,-45.286 -69.217,-64.13 -15.325,-6.783 -29.772,-7.6 -49.495,-8.73 -10.174,-0.566 -16.77,-0.754 -24.872,-4.899 -12.939,-6.595 -7.098,-10.239 -8.605,-20.854 -6.784,0.943 -5.339,2.638 -10.489,6.031 -5.276,3.454 -5.276,1.632 -7.663,6.908 -0.628,9.674 9.672,12.06 15.451,16.331 l -9.61,5.276 33.855,1.759 c 5.967,0.691 11.117,1.884 15.954,3.015 l 13.818,6.03 c -0.502,0 -3.831,-0.189 -4.334,-0.189 -0.503,0 -0.817,0 -1.319,-0.062 -0.44,0 -0.753,0 -1.194,-0.063 -12.499,-0.754 -23.176,-0.126 -35.424,2.386 6.218,4.648 16.582,4.899 23.804,6.093 22.99,3.643 48.365,10.489 68.276,19.22 13.127,5.779 28.578,13.944 37.811,24.558 11.243,12.814 21.67,29.71 6.281,43.591 -3.14,-4.397 -2.575,-6.344 -6.721,-10.741 -8.542,-9.044 -21.041,-12.561 -26.819,-18.906 7.725,-0.314 24.432,5.905 28.641,9.045 -6.03,-22.486 -44.972,-45.977 -64.569,-48.238 7.6,3.769 21.669,11.117 25.69,18.906 -14.258,-2.89 -93.525,-50.374 -138.058,-24.434 0.377,0.189 0.88,0.315 1.194,0.378 0.314,0.063 0.816,0.251 1.193,0.377 l 7.098,0.628 c 19.597,0.376 39.822,4.459 58.225,9.421 10.489,2.826 21.418,6.595 31.154,9.861 l 22.486,8.417 c 5.841,2.638 2.826,0.125 6.218,5.276 -12.185,2.009 -17.838,-2.261 -26.694,-5.779 -7.851,-3.14 -15.2,-5.59 -24.056,-8.165 -13.065,-3.706 -38.252,-8.73 -53.829,-7.474 4.46,2.7 21.669,8.039 26.757,9.358 -2.826,3.204 -6.783,2.45 -11.18,3.015 -9.61,1.131 -24.747,5.905 -31.342,12.123 36.241,-6.156 69.468,-5.904 100.747,10.74 z"
             style="fill:#ff27a8;fill-opacity:1;fill-rule:nonzero;stroke:none"
             id="path28" />
        </g>
        <g
           id="g30"
           transform="translate(42.5475,409.6775)">
          <path
             d="m 0,0 c -1.193,-0.691 -1.131,-2.512 0.126,-3.078 18.089,-8.667 55.084,-12.31 63.564,-32.346 1.193,-2.764 -0.189,-1.697 2.072,-4.021 0.126,-0.125 0.251,-0.251 0.44,-0.314 9.045,-5.213 41.895,0.189 57.408,0.817 1.697,0.062 2.325,2.261 0.943,3.204 -2.136,1.444 -4.46,2.197 -7.475,3.328 -13.692,5.088 -27.259,6.721 -41.329,9.547 0.251,0.251 0.565,0.503 0.817,0.691 0.125,0.126 0.251,0.188 0.439,0.251 l 30.714,12.688 c 1.634,0.691 1.382,3.078 -0.377,3.392 -27.196,5.087 -47.358,-3.894 -76.628,3.58 -1.696,0.44 -1.821,2.764 -0.188,3.392 l 33.98,12.75 c 0,0 0.126,0 0.189,0.063 12.813,6.658 19.973,11.432 34.419,15.514 1.508,0.44 1.759,2.45 0.441,3.203 C 87.934,39.697 68.84,46.04 56.969,53.64 c -0.879,0.566 -1.131,1.821 -0.44,2.576 0,0 0,0.062 0.063,0.062 0.188,0.252 -0.188,0 0,0 0.126,0 0.502,0.126 1.633,0.691 2.198,1.131 22.361,4.837 34.86,9.735 15.074,5.905 25.941,-4.71 42.899,-8.228 51.693,-10.74 24.433,19.786 46.166,26.067 7.474,2.136 9.673,2.764 13.253,8.919 0.439,0.816 0.251,1.884 -0.566,2.387 -21.481,14.509 -36.178,11.368 -52.321,14.948 -1.444,0.314 -1.884,2.136 -0.816,3.078 3.203,2.889 7.035,3.957 10.175,5.339 1.57,0.691 1.319,2.952 -0.314,3.329 -10.741,2.512 -22.8,4.208 -32.724,7.977 -20.539,7.788 -11.62,5.025 -26.38,8.291 -1.948,0.439 -1.822,3.329 0.188,3.517 18.341,1.947 49.683,-5.841 81.339,-0.125 12.06,2.198 27.197,6.783 38.315,10.865 5.652,2.073 11.871,4.586 17.901,6.847 3.203,1.193 6.092,2.387 9.358,3.392 0.063,0 0.126,0 0.189,0.063 l 3.077,1.445 c 1.634,0.753 1.194,3.266 -0.628,3.391 -30.023,2.324 -66.641,-9.736 -91.954,-15.263 -17.461,-3.768 -32.85,-0.314 -51.567,-1.758 h -0.126 l -46.856,-0.377 c -1.759,0 -2.45,-2.324 -0.942,-3.267 8.668,-5.59 15.64,-10.363 28.515,-14.195 12.877,-3.831 28.831,-4.961 33.667,-14.823 2.386,-4.836 -1.445,-2.638 5.59,-5.904 2.575,-1.194 5.841,-2.073 8.794,-3.454 48.991,-22.11 40.198,-50.563 -6.156,-35.928 -20.288,6.407 -18.529,2.135 -35.299,-1.005 -13.253,-2.45 -26.192,4.962 -39.634,3.643 -6.029,-0.628 -9.924,-2.952 -16.142,-3.894 h -0.251 l -13.379,-0.44 c -2.198,-0.126 -3.203,-2.889 -1.57,-4.396 3.517,-3.267 7.663,-6.91 13.002,-9.171 18.529,-7.726 23.428,-1.13 18.34,-23.365 -0.125,-0.628 0.063,-1.32 0.566,-1.759 1.319,-1.13 3.894,-3.329 5.276,-4.459 0.565,-0.44 0.753,-1.194 0.565,-1.885 C 48.113,10.929 14.886,8.605 0.063,-0.188 Z"
             style="fill:#ff27a8;fill-opacity:1;fill-rule:nonzero;stroke:none"
             id="path32" />
        </g>
        <g
           id="g34"
           transform="translate(358.1689,619.9664)">
          <path
             d="M 0,0 C 1.507,1.005 0.628,3.392 -1.194,3.203 -17.21,1.821 -60.926,-5.59 -69.405,-7.6 c -20.916,-4.962 -13.819,-6.155 -40.073,-2.136 -17.148,2.638 -25.439,2.262 -38.754,-0.314 -1.194,-0.251 -1.822,-1.57 -1.257,-2.638 0.314,-0.565 0.377,-0.314 3.015,-1.696 0.126,-0.062 0.251,-0.125 0.377,-0.125 l 41.706,-9.987 c 15.075,-2.952 25.439,2.764 40.89,2.575 15.326,-0.188 24.998,2.261 37.058,7.726 5.087,2.261 19.282,9.359 26.38,14.195 z"
             style="fill:#ff27a8;fill-opacity:1;fill-rule:nonzero;stroke:none"
             id="path36" />
        </g>
        <g
           id="g38"
           transform="translate(246.4289,306.292)">
          <path
             d="m 0,0 -0.754,5.967 c -0.126,1.194 0.88,2.198 2.073,1.947 l 17.838,-3.14 c 1.884,-0.314 2.889,2.135 1.319,3.203 -7.914,5.402 -19.157,10.113 -27.637,14.195 -7.977,3.895 -27.008,16.331 -36.241,8.417 -0.879,-0.754 -0.816,-2.136 0.125,-2.827 8.857,-6.344 23.555,-8.73 28.516,-12.059 0.943,-0.628 1.068,-2.01 0.251,-2.764 -2.009,-1.884 -7.222,-3.454 -10.929,-3.705 -14.446,-1.131 -35.236,6.406 -55.147,5.401 -7.035,-0.377 -53.012,-7.16 -67.961,-12.688 -1.507,-0.565 -1.507,-2.701 0,-3.329 14.886,-5.841 38.629,-18.026 46.417,-27.259 0.377,-0.44 0.503,-1.068 0.314,-1.634 -1.256,-4.396 -1.507,-2.197 -3.391,-6.092 -0.44,-0.816 -0.063,-1.884 0.753,-2.324 10.364,-5.653 15.703,-15.074 28.516,-18.466 1.822,-0.44 3.015,1.758 1.696,3.015 -5.841,5.59 -14.069,9.358 -17.964,17.021 -0.377,0.817 -0.188,1.759 0.566,2.262 l 5.653,3.956 c 1.507,1.069 1.57,2.387 0.753,3.141 l -22.486,20.539 c -1.256,1.131 -0.376,3.203 1.319,3.078 35.802,-2.638 65.888,10.426 104.265,2.136 1.193,-0.252 2.324,0.753 2.136,1.946 z"
             style="fill:#ff27a8;fill-opacity:1;fill-rule:nonzero;stroke:none"
             id="path40" />
        </g>
        <g
           id="g42"
           transform="translate(287.3185,285.5649)">
          <path
             d="M 0,0 V 0.063 C -0.315,0.502 -0.88,0.816 -1.445,0.754 -12.751,0.377 -32.536,-2.889 -49.746,0 -66.39,2.764 -72.295,9.421 -88.311,7.725 -90.07,7.537 -90.573,5.15 -88.939,4.334 c 9.421,-4.648 21.669,-6.219 32.284,-9.108 1.821,-0.502 1.696,-3.077 -0.126,-3.454 -16.268,-3.518 -41.329,1.821 -53.64,2.072 -2.072,0 -2.575,-2.826 -0.628,-3.454 11.495,-3.769 30.526,-7.412 39.822,-7.475 9.044,-0.126 19.22,2.953 28.453,3.581 9.673,0.628 28.956,3.266 39.696,5.401 3.706,0.691 5.339,5.088 3.078,8.04 z"
             style="fill:#ff27a8;fill-opacity:1;fill-rule:nonzero;stroke:none"
             id="path44" />
        </g>
        <g
           id="g46"
           transform="translate(163.1431,212.6417)">
          <path
             d="m 0,0 c -6.092,1.257 -23.428,4.271 -34.545,3.895 -2.01,-0.063 -2.387,-2.89 -0.44,-3.455 7.6,-2.387 16.142,-4.397 23.428,-7.035 22.109,-7.977 40.576,-26.443 79.392,-17.712 0.691,0.125 1.194,0.691 1.382,1.381 l 2.952,14.824 c 0.251,1.193 -0.754,2.198 -1.885,2.135 C 32.473,-9.484 29.333,-6.03 0.063,0 Z"
             style="fill:#ff27a8;fill-opacity:1;fill-rule:nonzero;stroke:none"
             id="path48" />
        </g>
        <g
           id="g50"
           transform="translate(142.1642,180.232)">
          <path
             d="m 0,0 c -4.271,0.879 -13.88,-1.508 -20.664,-3.706 -1.634,-0.503 -1.634,-2.889 0,-3.392 5.339,-1.695 11.368,-3.14 16.456,-4.962 15.137,-5.465 27.888,-17.901 53.577,-13.001 1.382,0.251 1.947,2.009 0.943,3.015 l -16.268,15.89 c -0.377,0.378 -0.88,0.566 -1.445,0.503 C 5.465,-8.228 20.916,-4.334 0.063,0 Z"
             style="fill:#ff27a8;fill-opacity:1;fill-rule:nonzero;stroke:none"
             id="path52" />
        </g>
        <g
           id="g54"
           transform="translate(121.1232,413.0697)">
          <path
             d="m 0,0 c 18.026,3.392 26.694,6.344 44.658,0 9.861,-3.455 46.857,-20.1 56.341,-22.675 1.004,-0.251 2.01,0.314 2.198,1.319 1.633,8.417 -6.847,12.436 -19.973,19.597 -62.811,34.231 -71.793,11.997 -95.912,3.643 -0.628,-0.251 -1.13,-0.754 -1.193,-1.444 -0.188,-1.571 -1.005,-3.33 13.944,-0.503 z"
             style="fill:#ff27a8;fill-opacity:1;fill-rule:nonzero;stroke:none"
             id="path56" />
        </g>
        <g
           id="g58"
           transform="translate(215.6532,353.9648)">
          <path
             d="M 0,0 C 0,0 -44.595,6.784 -59.104,7.098 -73.613,7.412 -86.05,2.01 -86.05,2.01 c 0,0 38.817,-10.05 55.21,-12.122 C -14.446,-12.185 0,0 0,0"
             style="fill:#ff27a8;fill-opacity:1;fill-rule:nonzero;stroke:none"
             id="path60" />
        </g>
        <g
           id="g62"
           transform="translate(401.5069,316.9698)">
          <path
             d="m 0,0 c 0,0 7.663,4.082 10.301,14.132 2.638,10.05 0.691,13.693 12.185,12.374 C 33.98,25.187 52.635,14.509 53.64,5.841 54.645,-2.826 58.414,-15.577 56.152,-19.22 53.891,-22.863 -7.851,-13.944 0,-0.063 Z"
             style="fill:#f3f0e9;fill-opacity:1;fill-rule:evenodd;stroke:none"
             id="path64" />
        </g>
        <g
           id="g66"
           transform="translate(441.3931,254.6623)">
          <path
             d="m 0,0 -1.571,16.142 c 0,0 16.268,-2.073 22.047,-4.836 C 26.254,8.542 19.848,0.063 19.848,0.063 H 0 Z"
             style="fill:#f3f0e9;fill-opacity:1;fill-rule:evenodd;stroke:none"
             id="path68" />
        </g>
        <g
           id="g70"
           transform="translate(326.3237,569.5927)">
          <path
             d="m 0,0 c 7.6,-2.575 13.316,-3.894 15.514,-9.358 -11.557,-0.629 -21.921,0.376 -33.29,0.439 -18.717,0.063 -29.646,-4.774 -42.396,-18.718 -5.402,-5.966 -4.837,-21.418 -7.538,-31.153 -2.072,-7.349 -8.416,-21.23 -13.629,-23.931 -9.736,-5.025 -14.824,-0.503 -19.346,-15.2 -2.324,-7.537 5.653,-12.814 7.851,-22.737 1.633,-7.349 -1.319,-18.09 8.04,-20.226 7.035,-1.318 6.784,2.136 5.025,7.726 -0.628,2.073 -1.382,3.894 -1.759,6.03 -0.754,6.218 -4.71,8.542 -2.324,12.625 5.653,4.02 13.944,-1.884 16.896,-7.161 5.276,-11.368 0.44,-22.674 -8.605,-30.274 -5.339,-4.459 -16.205,-11.808 -16.707,-19.22 0,-1.758 0.125,-1.821 1.947,-1.507 4.083,0.628 4.271,5.904 11.305,4.396 0.943,-0.188 -0.251,-1.884 -0.628,-2.638 -2.01,-3.768 -3.705,-5.213 -5.339,-9.735 -1.193,-3.455 -1.318,-6.532 -1.13,-10.176 0.126,-1.884 1.256,-1.695 3.141,-1.821 1.884,-0.063 3.077,4.711 3.203,6.218 0.691,8.48 1.696,14.195 5.339,22.047 2.324,4.899 7.098,12.059 12.625,13.441 1.005,0.251 -0.566,-1.382 -0.88,-1.822 -2.952,-4.145 -5.088,-6.155 -5.778,-11.368 -1.068,-9.673 -8.229,-14.698 -7.726,-26.318 0.188,-2.198 2.261,-2.764 4.208,-3.078 3.329,-0.628 4.9,2.952 6.093,5.402 3.831,8.605 3.391,14.698 3.203,23.806 0,2.135 1.068,2.324 2.827,3.517 2.261,1.507 19.659,14.069 20.602,14.006 1.884,-0.125 -3.581,-8.605 -4.397,-9.547 -0.691,-0.817 -4.9,-4.648 -3.204,-5.778 3.329,-2.198 9.924,0.565 1.005,-6.47 -3.894,-3.078 -8.856,-9.735 -12.248,-13.818 l -0.502,-0.565 c -1.382,-2.89 -4.02,-7.412 -2.889,-10.678 2.323,-6.281 13.378,-7.852 17.21,-1.319 l 0.439,0.754 0.44,0.879 0.439,0.942 c 2.513,7.412 3.015,13.442 4.586,20.853 1.256,5.716 2.136,3.266 5.464,2.01 2.073,-0.816 3.769,2.45 4.962,3.957 1.508,2.01 2.639,3.455 4.46,5.213 0.879,-3.454 0.691,-9.986 -1.507,-12.875 -2.639,-3.393 -6.784,-6.91 -9.862,-10.49 -3.078,-3.643 -7.537,-9.485 -5.59,-14.446 l 0.251,-0.692 c 4.083,-4.459 10.364,-4.521 13.756,0.755 4.397,8.291 3.643,13.567 5.904,21.858 3.392,0 0.754,-2.01 2.638,-1.822 3.203,0.314 6.532,6.909 8.479,9.296 1.257,1.57 0.817,0.69 0.817,-1.131 0,-9.924 -3.266,-12.75 -9.485,-19.785 -2.952,-3.391 -4.019,-5.715 -5.025,-10.05 -0.816,-4.333 2.011,-8.291 4.649,-10.301 12.185,9.799 8.291,16.08 12.75,28.517 0.251,0.69 0.377,0.879 0.942,1.381 2.576,-1.947 1.634,-1.256 3.078,-3.831 1.884,-3.266 4.46,1.005 5.716,2.826 0.376,0.566 4.083,6.407 4.145,6.407 1.005,-0.126 1.319,-2.638 1.319,-3.392 0,-5.401 -5.15,-12.813 2.387,-15.577 2.45,-0.879 3.894,1.822 5.025,3.706 2.889,5.025 2.512,9.61 10.049,10.301 1.194,0.125 0.44,-0.314 -0.188,-2.01 -2.638,-7.098 -2.135,-9.861 -8.291,-15.389 -2.135,-1.947 -0.691,-2.324 1.382,-3.705 3.14,-2.136 7.034,-4.523 9.17,-7.663 2.45,-3.266 3.078,-2.073 5.841,0.439 5.59,5.025 3.707,7.287 12.5,7.098 -5.213,-4.208 -2.952,-2.198 -6.658,-8.165 -1.696,-2.638 -3.769,-4.46 -5.15,-6.658 -1.194,-1.884 1.632,-3.455 3.077,-4.522 8.605,-6.282 13.693,-2.638 18.843,5.339 1.068,1.758 1.508,2.512 3.078,3.956 2.01,-13.567 -7.663,-14.069 -8.102,-20.852 -0.063,-1.257 3.328,-0.755 3.894,-0.629 3.014,0.817 7.6,5.025 9.107,5.025 h 0.377 l 0.314,-0.314 c 1.382,-1.571 1.256,-5.527 0.44,-7.537 -1.005,-2.073 -5.465,-7.223 -4.523,-9.045 0.754,-1.444 9.673,-2.01 10.992,0.628 1.13,2.387 1.822,10.176 2.952,13.881 3.329,9.736 12.563,8.04 11.683,14.321 -1.256,8.919 -13.127,-2.072 -16.833,-2.638 -0.754,-0.126 -0.691,0.691 -0.628,1.382 0.816,7.349 8.542,11.62 10.552,19.345 l 0.251,0.88 c -7.914,2.826 -18.529,0.628 -25.94,-2.89 2.826,6.659 8.793,6.03 14.823,8.354 -16.08,3.832 -22.361,-0.628 -37.247,-2.575 -3.141,-0.377 -3.078,-0.879 -1.068,1.947 6.03,8.542 15.578,10.615 24.057,15.829 l 0.691,0.439 c -9.422,3.894 -13.191,1.256 -20.979,0.126 2.575,3.58 3.957,3.956 5.276,7.034 -10.426,4.397 -13.378,3.581 -24.244,3.392 -1.257,0 0.062,0.817 0.879,1.696 11.808,12.688 19.596,17.399 37.058,11.934 11.62,-3.894 15.64,-2.763 21.669,-10.05 37.184,-45.097 26.569,-21.481 56.844,-33.101 12.436,-5.025 11.62,-13.881 28.955,-18.78 4.711,-1.319 7.6,-1.57 8.605,-6.783 -4.837,-0.691 -15.451,2.073 -20.602,3.14 -4.271,0.816 -8.165,2.01 -12.248,0.565 -5.025,-1.758 -10.426,-3.077 -15.074,0.189 -2.889,2.01 -3.517,2.952 -7.098,4.334 -4.71,1.632 -15.639,5.841 -18.842,6.532 1.004,-10.238 7.411,-9.861 15.827,-12.248 6.344,-1.822 6.596,-2.073 11.18,-6.092 4.083,-3.518 10.176,-5.528 15.452,-4.021 3.203,0.88 3.831,1.383 7.348,1.508 8.857,0.377 17.713,0.754 26.569,1.068 5.967,0.188 16.394,-1.696 22.8,-2.387 3.141,-0.314 6.722,-0.817 9.799,-0.126 -3.706,11.306 -25.941,12.5 -32.85,23.366 -6.846,10.803 -18.341,11.369 -28.013,17.084 -6.218,3.706 -7.161,7.977 -4.648,14.572 2.261,5.653 3.203,4.585 8.165,4.711 -0.628,-9.296 -3.077,-13.63 5.465,-17.148 0.753,10.867 0.753,19.849 -6.658,28.266 -5.59,6.28 -6.533,7.097 -8.668,15.576 -0.691,2.701 -0.251,2.701 -3.329,2.073 -1.382,-0.251 -2.324,-0.565 -3.769,-0.691 -0.69,6.846 14.509,14.572 19.409,18.026 5.653,4.021 9.924,8.166 10.992,15.326 0.565,4.774 -2.513,20.79 -4.272,24.434 -3.58,7.285 -9.295,9.609 -11.243,19.785 12.939,-8.479 14.573,-16.645 32.913,-10.427 6.218,2.136 7.349,1.445 9.296,7.789 -6.658,7.097 -8.479,4.71 -17.587,9.233 -9.045,4.522 -4.02,8.981 -0.816,15.828 -18.278,7.035 -7.349,7.349 -34.42,13.253 -14.007,3.078 -28.265,5.779 -42.209,9.045 3.518,6.281 8.982,4.773 14.132,8.793 C 88.751,-4.02 79.078,-6.532 62.245,-6.218 96.853,23.114 177.69,8.542 191.194,24.936 172.414,39.319 104.076,46.919 79.266,43.402 36.744,37.309 21.544,10.05 0.188,-0.063 Z m -68.401,-103.511 c -6.092,2.136 -7.6,4.459 -8.542,8.982 9.611,-3.204 11.62,-3.518 17.587,1.57 -0.942,6.093 -3.768,7.474 -2.827,16.079 2.325,20.288 20.037,29.019 26.444,39.445 -10.113,-0.377 -9.107,-1.633 -15.389,-4.711 4.209,12.123 17.022,10.741 27.385,8.919 4.963,-0.879 10.113,-2.198 15.012,-3.014 1.256,-0.189 2.198,-0.252 3.518,-0.252 -0.189,4.711 -2.199,10.301 -6.03,13.316 8.103,-4.397 16.142,-20.539 14.007,-29.458 -0.566,-2.261 -1.131,-2.45 -3.455,-3.14 -8.919,-2.639 -17.273,-2.073 -22.172,-11.432 -5.527,-10.552 -6.595,-19.094 -15.2,-28.767 -8.605,-9.673 -18.215,-11.62 -30.338,-7.537 m 67.961,32.913 c 5.277,-7.977 16.645,-45.852 5.779,-55.022 -11.809,-9.359 -19.283,-0.252 -26.13,9.17 -1.381,1.884 -2.638,3.14 -5.276,3.14 -3.517,0 -5.339,-3.894 -13.378,-3.831 -2.638,12.939 3.58,14.446 11.369,22.172 -1.382,-4.334 -3.392,-9.296 -5.025,-13.63 9.107,5.025 17.21,20.602 17.587,30.777 0.062,2.575 0,1.885 -1.194,0 -1.319,-2.073 -2.449,-4.208 -4.02,-6.092 -2.763,6.281 3.393,24.182 13.253,20.036 2.952,-1.256 5.277,-4.208 7.098,-6.783 z m 29.081,-61.743 c -4.333,4.145 -0.502,9.296 -0.502,9.296 0.188,0.565 0.502,0.565 0.753,0.879 4.649,0.126 8.919,-5.778 9.611,-9.484 -2.45,-2.261 -5.842,-4.585 -9.862,-0.754 z m 9.862,43.402 c -11.495,23.931 -0.314,32.347 22.549,38 14.006,3.455 24.872,1.947 38.502,-2.261 1.445,-0.44 2.952,-0.817 0.503,-1.571 -5.842,-1.821 -12.688,1.822 -19.848,-0.628 6.909,-8.291 29.457,-16.079 39.884,-26.066 3.454,-3.329 5.779,-6.721 7.223,-11.305 l 0.44,-1.445 c 7.16,-27.825 -25.878,-45.726 -29.333,-52.447 7.915,-2.199 13.128,-1.821 20.979,-0.314 1.445,0.251 1.131,0.251 -0.125,-1.319 -6.721,-8.228 -16.08,-6.972 -25.313,-4.334 -27.385,8.165 -24.559,11.494 -35.488,22.486 -10.301,10.364 -17.398,15.012 -19.282,31.782 5.464,-4.02 9.358,-18.34 20.789,-25.313 0.943,-0.565 2.136,0.064 2.136,1.194 0.44,14.509 -5.778,14.384 -7.977,25.815 -1.444,7.6 -6.218,14.572 -11.745,19.471 -0.879,0.754 -2.262,0.251 -2.387,-0.879 l -1.57,-10.803 z m 69.845,-94.969 c -5.967,2.512 -0.817,-0.503 -3.895,3.077 -0.188,0.189 -0.377,0.566 -0.565,0.817 -4.082,5.025 -4.396,3.894 -4.208,9.107 9.484,-1.821 20.225,-6.658 25.312,-15.325 -4.836,-0.754 -11.117,1.13 -15.891,2.135 l -0.753,0.126 z m 19.157,-68.338 c 0.565,-6.093 2.261,-13.63 3.768,-19.597 3.643,-0.502 16.833,-1.821 17.838,3.078 0.817,5.841 -1.633,6.218 6.156,7.977 2.952,0.691 10.238,2.135 11.369,5.401 0.314,0.817 -3.204,6.721 -8.668,2.513 -3.518,-2.701 -4.711,-5.088 -7.852,0.816 -2.449,4.523 -3.14,8.542 -4.899,13.002 -0.628,1.634 -0.628,1.382 -2.387,1.634 -10.992,1.758 -16.205,-2.576 -15.388,-13.756 v -1.068 z m -103.951,44.595 c -1.57,1.131 -10.616,6.721 -12.06,6.218 -3.077,-1.004 -7.035,-14.258 -7.977,-17.524 2.073,-1.758 12.185,-10.364 14.572,-7.977 2.513,2.513 8.605,16.582 5.465,19.283 m 31.028,-33.289 c -1.884,2.073 -6.846,7.788 -9.924,5.401 -2.387,-1.883 -8.856,-12.561 -6.532,-15.262 2.7,-3.141 6.092,-6.219 10.175,-7.286 3.14,-0.817 2.45,-0.88 4.522,1.821 3.329,4.334 6.407,10.05 2.199,14.823 z m -18.529,15.891 c -1.382,1.57 -6.407,6.281 -8.605,4.522 -2.073,-1.696 -4.836,-8.542 -5.088,-11.432 -0.628,-5.841 3.832,-9.609 9.422,-10.174 8.73,-0.943 8.981,10.991 4.773,16.456 z m -31.719,30.526 c -1.508,3.454 -4.585,0.439 -6.595,-1.193 -5.59,-4.774 -11.055,-12.877 -3.455,-18.718 0.817,-0.628 2.576,-2.324 3.58,-1.445 4.334,3.832 8.605,14.069 6.973,19.974 z m -65.637,45.035 c 0.754,0.627 0.503,-1.131 -0.188,-0.44 -0.126,0.126 0.063,0.377 0.188,0.44"
             style="fill:#f3f0e9;fill-opacity:1;fill-rule:evenodd;stroke:none"
             id="path72" />
        </g>
        <g
           id="g74"
           transform="translate(436.8071,229.9778)">
          <path
             d="m 0,0 c -1.884,-0.188 -5.654,-6.407 -6.847,-8.04 -3.831,-5.213 -11.494,-12.248 -16.644,-16.268 -6.846,-4.711 -11.746,-3.329 -18.969,-7.537 -3.831,-2.261 -6.846,-4.459 -11.557,-4.208 -1.633,0.063 1.633,2.01 2.324,2.512 3.957,3.141 11.745,9.736 15.954,11.683 2.135,0.879 4.271,1.193 6.532,1.444 -1.633,3.204 -4.334,7.349 -2.387,10.992 1.759,3.078 1.885,1.822 2.764,6.344 0.314,1.759 0.314,2.764 0,4.522 -3.706,-1.318 -6.721,-3.956 -10.427,-5.778 -4.522,-2.199 -5.024,-4.334 -9.233,-6.658 -6.595,-3.643 -4.899,-0.753 -5.15,-9.296 -0.189,-5.653 -2.262,-7.914 -6.344,-11.432 -0.816,1.759 -0.691,2.701 -1.256,4.272 -0.252,-0.754 -0.503,-3.958 0.377,-0.565 1.005,3.831 2.449,6.029 1.884,10.112 -4.648,0.691 -8.103,-1.821 -12.688,-2.952 -4.585,-1.068 -3.014,-1.005 -3.957,-6.093 -0.628,-3.266 -1.382,-5.402 -3.266,-8.165 -1.319,-1.696 -2.701,-2.952 -4.459,-4.208 0.125,4.208 2.072,9.861 1.758,13.441 0,0.566 -1.381,-0.063 -2.01,-0.251 -5.275,-1.256 -4.334,-0.628 -9.233,-0.377 -2.261,0.125 -1.759,-2.324 -2.136,-4.397 -1.13,-6.344 -2.638,-7.788 -7.097,-12.185 -1.131,-1.13 -0.251,0.628 0.063,1.696 0.942,3.078 2.764,7.977 2.764,11.117 -2.324,-0.502 -4.146,-1.821 -6.47,-1.696 2.073,8.542 5.904,12.249 2.449,21.67 -0.251,0.753 -1.507,0.126 -2.386,-0.126 -6.093,-1.696 -4.774,-6.092 -5.464,-11.431 -0.692,-5.276 -1.194,-6.155 0.879,-11.369 -7.035,-6.343 -2.324,-6.909 -7.035,-13.504 -0.314,-0.44 -0.503,1.193 -0.628,1.696 -0.44,1.57 -1.068,5.904 -2.889,6.218 -0.817,0.126 0.942,4.02 1.067,4.397 1.947,5.339 5.653,14.257 4.899,19.785 -12.436,2.449 -16.33,-4.145 -14.32,-15.64 0.628,-3.391 1.57,-6.155 3.077,-9.233 -5.841,-1.507 -5.276,1.005 -5.276,-7.286 v -1.759 -1.884 c -12.059,13.63 1.257,15.954 -2.701,29.458 -3.454,11.683 -16.833,2.575 -10.237,-12.813 l 0.502,-1.194 c 1.507,-3.328 2.387,-2.073 -2.198,-3.014 -1.005,-0.252 -1.382,-0.566 -2.199,-1.131 0.377,-2.952 0.817,-5.841 1.131,-8.857 -12.06,11.872 -2.073,18.844 -2.952,31.908 -0.189,2.827 -1.508,2.136 -4.46,2.576 -1.947,0.314 -2.889,0.376 -4.836,-0.126 -1.507,-6.721 2.512,-7.914 2.763,-14.697 0,-2.827 -1.821,-1.759 -3.328,-3.895 l -0.566,-0.879 c -0.376,-0.816 1.256,-2.513 1.822,-3.329 1.068,-1.508 2.135,-2.952 3.203,-4.46 -14.132,0.189 -6.909,-3.454 -11.305,-3.454 -0.063,2.575 -0.127,5.213 1.695,7.223 2.199,5.967 -6.092,8.856 -8.165,6.595 -0.44,-0.502 -0.879,-0.942 -1.382,-1.445 1.005,-1.193 4.836,-3.454 5.151,-4.396 0.691,-2.199 1.381,-2.01 -1.382,-1.633 -6.909,0.879 -6.909,4.522 -10.427,9.107 -2.261,2.952 -5.151,3.392 -8.417,1.696 -0.816,-0.44 -0.879,-0.628 -0.69,-1.759 0.628,-3.266 8.605,-17.963 11.431,-19.973 6.281,-3.58 13.316,1.507 24.999,-6.658 14.697,-10.301 18.466,-9.296 35.173,-4.46 3.769,1.068 7.663,2.136 11.62,2.324 -3.517,-6.092 -19.659,-12.813 -26.317,-14.823 -5.716,-1.759 -13.693,-3.518 -19.535,-1.759 -7.411,2.513 -10.865,7.663 -20.036,7.035 -3.894,-0.251 -6.909,-0.942 -10.678,0.754 -1.381,0.628 -1.13,0.753 -1.884,2.512 -2.826,6.846 -1.382,8.354 -2.386,14.698 -0.189,1.382 -0.566,2.261 -1.194,3.517 -6.218,-2.638 -15.891,-12.059 -18.654,-18.277 -1.194,-2.701 -1.634,-4.9 -1.006,-7.789 2.638,-9.987 12.249,-19.974 16.08,-28.013 18.592,-2.827 18.403,1.381 38.251,-7.977 14.07,-6.658 17.147,-10.741 33.227,-6.218 21.67,6.092 39.759,29.646 51.064,34.545 19.409,8.354 40.451,16.582 60.487,23.303 9.924,3.329 18.718,5.213 28.767,7.474 6.972,1.57 13.441,7.914 16.142,14.383 1.633,3.895 1.571,8.668 -2.701,10.741 -3.015,1.445 -7.599,-8.919 -9.233,-10.803 -3.705,-4.208 -11.494,-4.711 -16.77,-6.532 -5.778,-2.011 -12.876,-6.219 -18.843,-6.344 8.102,4.145 13.127,6.469 18.529,14.258 -3.14,1.758 -1.696,-0.503 -4.46,2.701 3.832,2.7 17.085,14.257 14.447,19.345 C 14.007,-6.909 4.836,-0.126 0.063,-0.188 Z m -53.389,-8.165 c 7.851,-0.817 5.841,5.401 11.683,8.291 4.71,2.324 7.662,-3.707 5.779,10.929 -0.692,5.59 -0.88,5.15 -5.214,5.087 -4.46,0 -15.765,-0.565 -14.949,-7.286 0.943,-7.223 3.141,-3.517 1.319,-13.127 -0.188,-0.88 -0.565,-3.204 0.44,-3.706 l 0.942,-0.251 z m -21.921,5.966 c -0.565,-2.638 -2.261,-9.484 -1.005,-11.808 2.952,-5.276 6.03,-1.696 10.176,0.377 5.778,2.952 5.025,1.068 6.092,7.914 0.628,4.083 0.691,6.344 0,10.426 -4.334,0.88 -8.668,-0.188 -12.876,-1.13 -1.444,-0.314 -1.444,-1.005 -1.758,-2.513 -0.252,-1.13 -0.377,-2.198 -0.566,-3.328 z m -18.026,-2.638 c -3.643,-2.386 -3.204,-2.638 -3.517,-7.286 -0.189,-3.14 -0.252,-8.793 3.203,-10.112 2.135,-0.817 5.967,-1.696 7.788,0 3.58,3.392 5.716,13.881 5.904,18.906 -5.025,2.701 -8.981,1.382 -13.378,-1.57 z m -83.852,-6.155 c -1.319,-4.648 -0.754,-10.678 0.691,-14.572 3.454,2.701 8.793,7.788 7.663,13.19 z m -19.911,-68.463 c 11.683,-6.156 12.248,-1.507 23.554,-2.45 16.142,-1.319 26.003,-21.795 49.055,-11.494 15.702,7.161 23.554,20.602 40.889,27.511 11.558,4.648 31.343,9.484 43.779,8.416 -16.519,-5.087 -23.742,-4.333 -37.874,-16.268 -9.359,-7.977 -16.268,-15.451 -26.758,-22.548 -2.826,-1.885 -5.59,-3.58 -8.605,-5.214 -18.215,-10.049 -26.192,-7.851 -45.537,5.653 -15.137,10.552 -19.723,-6.846 -32.41,5.528 l -6.155,10.866 z"
             style="fill:#f3f0e9;fill-opacity:1;fill-rule:evenodd;stroke:none"
             id="path76" />
        </g>
        <g
           id="g78"
           transform="translate(241.3418,367.9721)">
          <path
             d="m 0,0 c 0.942,1.444 4.397,5.716 5.904,4.082 1.445,-1.507 3.329,-7.725 3.517,-10.364 0.44,-5.338 -2.638,-8.73 -6.469,-9.232 -6.03,-0.817 -6.218,9.987 -3.266,14.948 z"
             style="fill:#f3f0e9;fill-opacity:1;fill-rule:nonzero;stroke:none"
             id="path80" />
        </g>
        <g
           id="g82"
           transform="translate(253.7151,355.033)">
          <path
             d="m 0,0 c 0.691,1.444 3.204,5.716 4.334,4.082 1.068,-1.507 2.45,-7.725 2.575,-10.364 0.314,-5.338 -1.947,-8.73 -4.773,-9.232 -4.397,-0.817 -4.522,9.987 -2.387,14.949 z"
             style="fill:#f3f0e9;fill-opacity:1;fill-rule:nonzero;stroke:none"
             id="path84" />
        </g>
        <g
           id="g86"
           transform="translate(266.9682,337.8859)">
          <path
             d="M 0,0 C 0.942,-1.445 4.334,-5.716 5.841,-4.083 7.223,-2.575 9.107,3.643 9.296,6.281 9.735,11.62 6.658,15.011 2.889,15.514 -3.078,16.331 -3.203,5.527 -0.377,0.565 L -0.063,0 Z"
             style="fill:#f3f0e9;fill-opacity:1;fill-rule:nonzero;stroke:none"
             id="path88" />
        </g>
        <g
           id="g90"
           transform="translate(268.8515,222.6916)">
          <path
             d="M 0,0 C 0.943,-1.444 4.334,-5.716 5.841,-4.082 7.223,-2.575 9.108,3.643 9.296,6.281 9.736,11.62 6.658,15.011 2.889,15.514 -3.078,16.331 -3.203,5.527 -0.377,0.565 L -0.063,0 Z"
             style="fill:#f3f0e9;fill-opacity:1;fill-rule:nonzero;stroke:none"
             id="path92" />
        </g>
        <g
           id="g94"
           transform="translate(283.1093,231.8617)">
          <path
             d="M 0,0 C 0.943,-1.193 4.334,-4.648 5.841,-3.329 7.223,-2.072 9.108,2.952 9.296,5.025 9.736,9.359 6.658,12.06 2.889,12.5 -3.078,13.19 -3.203,4.397 -0.377,0.44 L -0.063,0 Z"
             style="fill:#f3f0e9;fill-opacity:1;fill-rule:nonzero;stroke:none"
             id="path96" />
        </g>
        <g
           id="g98"
           transform="translate(296.3631,234.4998)">
          <path
             d="M 0,0 C 0,0 11.872,19.911 13.693,23.805 15.514,27.699 -7.789,127.254 6.909,122.292 21.607,117.33 32.285,109.541 33.541,107.343 34.797,105.144 22.737,62.936 20.602,51.191 18.466,39.445 43.277,7.412 24.371,-0.251 8.04,-6.909 0.063,-0.063 0.063,-0.063 Z"
             style="fill:#f3f0e9;fill-opacity:1;fill-rule:evenodd;stroke:none"
             id="path100" />
        </g>
      </g>
    </g>
  </g>
</svg>
