<?xml version="1.0"?>
<!-- Created with xTool Creative Space (https://www.xtool.com/pages/software) -->
<svg xmlns="http://www.w3.org/2000/svg" xmlns:xlink="http://www.w3.org/1999/xlink" xmlns:xcs="https://www.xtool.com/pages/software" version="1.1" preserveAspectRatio="xMinYMin meet" width="55.568614660394644mm" height="56.370388473031745mm" viewBox="22.2842726350722 25.336907811900083 55.568614660394644 56.370388473031745" xcs:version="2.3.24"><style>svg * { vector-effect: non-scaling-stroke; stroke-width: 1px; }</style>
<path transform="matrix(0.816527,0,0,0.816527,37.314894,31.29983)" stroke="none" fill="#000000" d="M22.54 0.027C24.734 0.137 26.927 0.408 29.064 0.926 30.05 1.178 31.049 1.471 31.917 2.018 31.976 2.073 32.136 2.123 31.999 2.188 31.561 2.6 30.948 2.74 30.377 2.863 29.158 3.084 27.917 3.137 26.684 3.24 24.489 3.417 22.254 3.568 20.161 4.308 19.36 4.591 18.589 4.984 17.933 5.529 19.085 5.545 20.237 5.525 21.388 5.529 21.867 5.608 22.35 5.671 22.82 5.798 22.756 5.957 22.424 6.032 22.238 6.123 21.966 6.229 21.672 6.321 21.483 6.559 21.358 6.652 21.263 6.822 21.496 6.813 23.303 7.233 25.131 7.564 26.934 8.002 27.503 8.139 28.069 8.326 28.552 8.665 28.92 8.891 29.322 9.053 29.717 9.225 29.574 9.6 29.264 9.923 29.254 10.341 29.294 10.698 29.662 10.872 29.95 11.013 30.467 11.271 31.095 11.328 31.519 11.754 31.595 11.826 31.671 11.898 31.748 11.97 31.653 12.249 31.53 12.579 31.213 12.66 30.552 12.893 29.855 13.14 29.144 13.025 28.585 12.904 28.171 12.478 27.728 12.146 27.527 12.007 27.336 11.806 27.115 11.722 27.227 12.271 27.533 12.752 27.889 13.175 28.19 13.532 28.427 13.946 28.516 14.409 28.665 15.102 28.832 15.804 28.804 16.518 28.778 16.852 28.608 17.154 28.46 17.447 28.111 17.797 27.757 18.149 27.323 18.394 26.765 18.771 26.153 19.101 25.708 19.617 25.6 19.738 25.298 20.23 25.648 20.16 25.812 20.143 26.067 20.026 26.198 20.132 26.341 20.665 26.476 21.225 26.858 21.645 27.268 22.116 27.706 22.604 27.851 23.23 27.97 23.692 27.947 24.175 27.963 24.648 27.966 24.815 27.953 24.982 27.929 25.147 27.61 25.029 27.273 24.791 27.258 24.419 27.226 24.034 27.324 23.653 27.327 23.269 27.086 23.283 26.774 23.205 26.619 23.443 26.392 23.79 26.29 24.205 26.313 24.618 26.306 24.735 26.407 24.829 26.453 24.93 26.78 25.367 27.32 25.559 27.801 25.773 28.493 26.059 29.249 26.307 29.75 26.896 30.018 27.203 30.228 27.567 30.578 27.792 31.391 28.369 32.406 28.588 33.193 29.205 33.388 29.36 33.533 29.568 33.636 29.792 33.436 29.888 33.196 29.827 32.98 29.836 32.208 29.79 31.444 29.646 30.676 29.56 29.432 29.559 28.187 29.603 26.946 29.678 26.513 29.758 26.084 29.938 25.636 29.857 25.1 29.797 24.677 29.437 24.28 29.103 23.781 28.737 23.141 28.686 22.568 28.498 22.15 28.406 21.78 28.079 21.706 27.647 21.602 27.427 21.691 27.3 21.915 27.436 22.6 27.671 23.288 27.9 23.953 28.187 24.322 28.377 24.62 28.728 25.056 28.766 25.547 28.84 25.996 28.582 26.471 28.523 27.066 28.498 27.64 28.691 28.219 28.799 28.726 28.914 29.241 28.991 29.761 29.006 29.73 28.724 29.537 28.456 29.251 28.39 28.658 28.188 28.026 28.039 27.523 27.643 26.892 27.176 26.417 26.485 25.66 26.204 25.225 26.03 24.772 25.896 24.312 25.809 23.803 25.79 23.291 25.784 22.783 25.757 22.113 25.542 21.606 25.025 21.127 24.534 20.454 23.84 19.859 23.077 19.213 22.359 18.8 21.897 18.164 21.791 17.6 21.62 16.899 21.425 16.194 21.154 15.453 21.219 15.295 21.225 15.135 21.219 14.988 21.288 14.1 21.554 13.429 22.24 12.828 22.913 12.812 22.962 12.999 22.92 13.065 22.933 13.48 22.934 13.897 22.917 14.312 22.93 14.732 23.017 15.152 23.134 15.541 23.318 15.387 23.571 15.186 23.79 15.009 24.026 15.165 24.071 15.423 23.976 15.618 23.95 15.826 23.913 16.032 23.843 16.245 23.879 16.589 23.888 16.935 23.944 17.248 24.093 16.944 24.312 16.589 24.449 16.26 24.628 15.613 24.956 14.924 25.297 14.513 25.925 14.334 26.087 14.464 26.164 14.653 26.096 15.704 25.964 16.734 25.581 17.806 25.676 18.12 25.698 18.435 25.731 18.736 25.823 18.31 25.984 17.831 26.028 17.451 26.294 17.329 26.39 17.172 26.578 17.166 26.695 17.653 26.508 18.156 26.356 18.677 26.302 19.094 26.251 19.525 26.278 19.926 26.407 19.984 26.631 19.786 26.893 19.676 27.097 19.358 27.614 18.847 28.06 18.782 28.697 18.891 28.914 19.208 28.585 19.382 28.531 19.697 28.359 20.016 28.135 20.385 28.12 20.685 28.166 20.75 28.561 20.649 28.798 20.442 29.095 20.068 29.21 19.821 29.467 19.413 29.813 19.345 30.368 19.258 30.862 19.187 31.14 19.206 31.471 18.998 31.691 18.765 31.839 18.471 31.787 18.208 31.789 18.107 31.762 17.852 31.776 17.873 31.621 17.935 31.143 18.428 30.829 18.439 30.333 18.483 30.098 18.333 29.653 18.046 29.917 17.7 30.126 17.355 30.442 16.919 30.384 16.769 30.366 16.819 30.234 16.855 30.142 17.019 29.674 17.515 29.408 17.655 28.924 17.752 28.635 17.775 28.321 17.706 28.023 17.326 28.43 17.104 28.998 16.594 29.274 16.202 29.502 15.734 29.309 15.389 29.083 15.207 28.947 14.818 28.762 15.014 28.486 15.26 28.16 15.539 27.855 15.725 27.488 15.854 27.253 16.056 27.077 16.252 26.9 15.952 26.924 15.603 26.903 15.398 27.167 15.137 27.442 14.907 27.767 14.568 27.95 14.283 27.917 14.18 27.555 13.947 27.409 13.661 27.147 13.308 26.973 13.024 26.711 13.006 26.455 13.347 26.295 13.472 26.075 13.722 25.771 13.798 25.37 13.944 25.012 13.946 24.897 14.155 24.601 14.048 24.576 13.775 24.607 13.479 24.695 13.334 24.95 13.079 25.313 12.979 25.785 12.642 26.088 12.398 26.228 12.097 26.002 11.986 25.785 11.845 25.336 12.106 24.893 12.11 24.442 12.158 24.297 12.019 23.86 11.89 24.177 11.666 24.493 11.496 24.856 11.207 25.12 10.902 25.311 10.847 24.805 10.643 24.685 10.489 24.521 10.444 24.888 10.394 24.982 10.201 25.596 10.187 26.258 9.939 26.855 9.745 27.282 9.409 27.63 9.045 27.919 8.789 27.654 8.53 27.339 8.544 26.948 8.557 26.395 8.873 25.911 9.233 25.514 9.576 25.117 9.958 24.711 10.068 24.178 10.143 23.889 10.149 23.589 10.146 23.292 9.879 23.553 9.727 23.91 9.463 24.175 9.384 24.279 9.105 24.491 9.023 24.345 9.043 24.221 8.965 24.208 8.86 24.224 8.773 24.29 8.789 24.485 8.746 24.597 8.598 25.32 8.543 26.111 8.087 26.724 7.746 27.176 6.969 27.106 6.672 26.644 6.481 26.223 6.698 25.751 6.951 25.407 7.364 24.819 7.941 24.372 8.366 23.797 8.577 23.45 8.571 23.017 8.54 22.626 8.484 22.345 8.243 22.784 8.143 22.876 7.961 23.093 7.816 23.369 7.548 23.492 7.389 23.417 7.23 23.341 7.07 23.265 6.86 23.482 6.874 23.813 6.799 24.088 6.66 24.778 6.577 25.492 6.283 26.138 6.161 26.427 5.887 26.612 5.6 26.706 5.262 26.707 4.884 26.723 4.621 26.471 4.398 26.301 4.241 26.017 4.324 25.734 4.391 25.466 4.505 25.208 4.63 24.963 5.149 24.319 5.652 23.649 6.307 23.133 6.368 23.051 6.646 22.898 6.474 22.812 6.289 22.727 5.8 22.767 5.937 22.444 6.113 22.162 6.376 21.942 6.528 21.642 6.606 21.46 6.872 21.138 6.751 21 6.102 21.367 5.508 21.823 4.894 22.245 4.679 22.411 4.43 22.536 4.236 22.725 4.161 23.481 4.277 24.262 4.044 25 3.916 25.357 3.797 25.75 3.512 26.016 3.293 26.186 2.935 26.103 2.768 25.897 2.682 25.823 2.736 25.7 2.721 25.601 2.702 24.748 3.248 24.041 3.491 23.256 3.586 22.901 3.6 22.516 3.807 22.198 3.953 21.929 4.166 21.705 4.327 21.447 4.102 21.465 3.89 21.624 3.725 21.779 2.898 22.587 2.518 23.732 2.38 24.856 2.323 25.237 2.329 25.651 2.1 25.979 1.978 25.991 1.849 25.992 1.725 25.999 1.674 25.917 1.594 25.842 1.627 25.737 1.641 25.263 1.662 24.768 1.914 24.35 2.076 24.022 2.344 23.739 2.436 23.381 2.249 23.268 1.946 23.306 1.762 23.443 1.544 23.599 1.352 23.855 1.053 23.826 0.892 23.844 0.992 23.545 1.002 23.446 1.197 22.897 1.66 22.504 2.082 22.127 2.666 21.641 3.315 21.182 3.667 20.486 3.81 20.214 3.917 19.918 3.977 19.618 3.97 19.366 3.986 19.111 3.964 18.861 3.857 18.48 3.733 18.083 3.42 17.815 3.07 17.476 2.547 17.179 2.051 17.358 1.753 17.446 1.801 17.803 1.899 18.025 2.072 18.398 2.15 18.802 2.256 19.197 2.365 19.52 2.454 19.854 2.456 20.197 2.376 20.248 2.314 20.351 2.223 20.366 1.871 20.356 1.469 20.319 1.247 20.007 1.004 19.67 1.029 19.231 0.981 18.836 0.961 18.313 0.871 17.784 0.605 17.326 0.382 16.883 0.057 16.466 0 15.96 0.009 15.539 0.204 15.143 0.418 14.789 0.674 14.361 1.202 14.288 1.638 14.153 2.024 14.047 2.393 13.84 2.622 13.502 3.049 12.911 3.357 12.237 3.59 11.548 3.917 10.529 3.877 9.433 4.209 8.416 4.402 7.897 4.838 7.525 5.239 7.166 6.056 6.472 7.065 5.97 8.145 5.897 9.366 5.795 10.591 5.907 11.814 5.905 12.137 5.908 12.459 5.905 12.782 5.906 12.747 5.687 12.543 5.529 12.381 5.392 12.007 5.143 11.554 5.047 11.146 4.882 11.424 4.66 11.762 4.518 12.046 4.3 13.125 3.524 14.101 2.612 15.199 1.861 15.934 1.37 16.73 0.971 17.552 0.648 18.748 0.205 20.023 0.003 21.296 0.001 21.711-0.003 22.125 0.008 22.54 0.027ZM11.493 26.106C11.69 26.329 11.638 26.655 11.635 26.931 11.575 27.519 11.301 28.078 10.914 28.519 10.697 28.741 10.455 28.366 10.293 28.239 9.956 27.924 10.018 27.39 10.254 27.036 10.489 26.676 10.793 26.35 11.159 26.121 11.257 26.069 11.4 26.013 11.493 26.106ZM12.744 27.115C13.074 27.29 13.418 27.456 13.706 27.697 13.847 27.975 13.73 28.301 13.657 28.584 13.511 29.017 13.333 29.449 13.054 29.815 12.699 29.838 12.403 29.59 12.121 29.409 11.907 29.24 11.665 29.095 11.482 28.893 11.596 28.433 11.762 27.979 11.956 27.544 12.084 27.348 12.201 26.867 12.513 27.01 12.591 27.043 12.668 27.078 12.744 27.115ZM14.464 29.1C14.877 29.318 15.216 29.687 15.35 30.14 15.394 30.293 15.361 30.459 15.372 30.618 15.364 30.747 15.404 30.888 15.319 30.999 15.242 31.187 15.096 31.353 14.913 31.436 14.605 31.435 14.275 31.453 14.013 31.263 13.691 31.073 13.477 30.696 13.554 30.319 13.606 29.896 13.802 29.501 14.034 29.149 14.138 28.991 14.321 29.018 14.464 29.1ZM16.479 30.758C16.788 30.975 17.069 31.25 17.266 31.575 17.482 31.998 17.252 32.472 17.01 32.83 16.917 32.969 16.815 33.103 16.717 33.239 16.181 33.249 15.73 32.887 15.381 32.515 15.294 32.413 15.165 32.28 15.227 32.135 15.327 31.657 15.584 31.221 15.876 30.835 16.013 30.62 16.286 30.628 16.479 30.758ZM10.092 7.652C10.335 8.01 10.516 8.436 10.509 8.875 10.038 8.868 9.581 8.729 9.119 8.648 8.255 8.475 7.348 8.262 6.476 8.503 6.026 8.637 5.664 9.014 5.509 9.45 5.777 9.374 6.015 9.163 6.292 9.078 6.578 9.009 6.876 8.987 7.169 8.98 7.034 9.233 6.804 9.429 6.616 9.647 5.958 10.365 5.187 11.005 4.726 11.879 4.411 12.473 4.23 13.151 4.26 13.825 4.29 14.261 4.518 14.651 4.576 15.081 4.373 15.249 4.153 15.41 3.903 15.495 3.577 15.507 3.254 15.453 2.946 15.346 2.769 15.267 2.576 15.247 2.723 15.485 2.837 15.887 3.23 16.104 3.6 16.226 4.349 16.496 5.221 16.556 5.943 16.171 6.437 15.927 6.819 15.512 7.166 15.094 7.854 14.198 8.107 13.067 8.672 12.103 8.94 11.664 9.403 11.378 9.899 11.267 10.335 11.138 10.799 11.094 11.215 10.905 11.483 10.73 11.398 10.357 11.407 10.086 11.331 9.3 10.962 8.56 10.464 7.956 10.319 7.787 10.167 7.619 9.979 7.497L10.092 7.652ZM9.641 11.888C9.155 12.143 8.918 12.694 8.803 13.204 8.745 13.488 8.722 13.79 8.818 14.069 9.026 13.807 9.174 13.503 9.379 13.239 9.413 14.013 9.103 14.76 8.726 15.421 8.415 15.942 8.021 16.433 7.508 16.767 7.505 16.585 7.662 16.301 7.728 16.08 7.812 15.847 7.908 15.617 7.979 15.381 7.762 15.496 7.59 15.698 7.398 15.856 7.07 16.142 6.729 16.495 6.722 16.959 6.701 17.21 6.714 17.463 6.77 17.709 7.192 17.721 7.598 17.575 7.96 17.367 8.041 17.317 8.123 17.275 8.22 17.301 8.443 17.288 8.645 17.407 8.772 17.587 9.187 18.099 9.564 18.703 10.19 18.98 10.722 19.222 11.342 18.966 11.737 18.586 12.118 18.19 12.162 17.604 12.174 17.083 12.162 15.808 11.839 14.553 11.395 13.365 11.18 12.794 10.869 12.2 10.309 11.903 10.102 11.798 9.851 11.785 9.641 11.888ZM14.23 18.32C14.009 18.604 13.927 19.041 14.191 19.326 14.387 19.589 14.776 19.693 15.059 19.506 15.13 19.427 15.351 19.362 15.304 19.238 15.156 18.814 14.838 18.399 14.386 18.285 14.333 18.272 14.266 18.272 14.23 18.32ZM18.933 10.269C17.922 10.379 16.922 10.651 16.008 11.097 15.415 11.384 14.902 11.931 14.84 12.609 14.768 13.303 15.023 13.981 15.313 14.597 15.399 14.133 15.44 13.66 15.54 13.199 15.747 13.287 15.897 13.49 16.06 13.645 16.552 14.167 16.9 14.817 17.053 15.518 17.149 15.997 17.391 16.423 17.621 16.847 17.879 17.301 17.931 17.835 17.918 18.347 17.892 18.422 17.933 18.648 17.81 18.527 17.053 18.126 16.577 17.38 16.131 16.678 15.922 16.329 15.703 15.985 15.433 15.678 15.392 16.063 15.547 16.437 15.658 16.799 15.866 17.459 16.339 17.98 16.818 18.459 17.373 19.01 17.911 19.578 18.429 20.164 18.999 20.807 19.837 21.096 20.625 21.373 21.341 21.599 22.071 21.866 22.833 21.84 23.314 21.814 23.785 21.601 24.1 21.231 24.2 21.135 24.403 20.943 24.129 21.03 23.607 21.142 23.07 21.132 22.54 21.126 22.329 21.078 22.115 21.041 21.907 20.98 22.002 20.746 22.236 20.594 22.411 20.419 23.302 19.618 24.24 18.811 24.802 17.732 25.108 17.139 25.272 16.467 25.206 15.799 25.16 14.975 24.752 14.186 24.108 13.67 23.316 13.011 22.377 12.568 21.487 12.061 20.934 11.749 20.363 11.441 19.912 10.985 20.071 10.833 20.413 10.861 20.65 10.859 21.128 10.872 21.619 11.009 22.089 10.866 22.344 10.713 21.74 10.665 21.62 10.596 20.75 10.346 19.839 10.199 18.933 10.269ZM22.025 23.774C22.002 24.168 22.364 24.413 22.562 24.709 22.668 24.945 22.917 25.035 23.153 25.084 23.646 25.194 24.143 25.325 24.652 25.325 24.886 25.334 24.727 25.18 24.664 25.088 24.057 24.291 23.086 23.869 22.134 23.647 21.983 23.594 22.031 23.659 22.025 23.774Z" fill-rule="evenodd"></path><path transform="matrix(0.816527,0,0,0.816527,37.538621,56.512363)" stroke="none" fill="#000000" d="M26.364 0.028C26.466 0.048 26.589 0.037 26.679 0.076 26.897 0.471 26.977 0.926 27.162 1.336 27.285 1.595 27.389 1.925 27.673 2.047 27.929 2.013 28.079 1.751 28.315 1.657 28.615 1.472 29.027 1.68 29.119 2 29.036 2.261 28.721 2.342 28.495 2.443 28.116 2.595 27.689 2.612 27.327 2.804 27.225 2.863 27.214 2.965 27.218 3.071 27.2 3.256 27.22 3.458 27.131 3.625 26.815 3.914 26.35 3.85 25.955 3.87 25.713 3.871 25.47 3.86 25.229 3.827 25.028 3.049 24.863 2.256 24.807 1.453 24.785 0.994 24.862 0.437 25.293 0.177 25.612-0.015 26.004-0.026 26.364 0.028ZM18.839 9.51C19.023 9.693 18.975 9.992 19.024 10.229 19.055 10.504 19.055 10.781 19.053 11.057 18.988 11.123 18.931 11.208 18.826 11.178 18.54 11.153 18.246 11.258 18.07 11.491 17.87 11.711 17.75 12.048 17.447 12.148 17.291 12.143 17.135 12.138 16.978 12.133 16.938 12.047 16.877 11.963 16.917 11.865 16.962 11.501 17.095 11.115 16.92 10.766 16.836 10.512 16.708 10.198 16.863 9.948 17.104 9.606 17.552 9.561 17.932 9.502 18.233 9.484 18.54 9.472 18.839 9.51ZM16.346 10.734C16.47 11.28 16.387 11.852 16.263 12.392 16.138 12.632 15.802 12.661 15.591 12.817 15.352 12.939 15.093 13.161 14.81 13.054 14.689 12.976 14.567 12.84 14.538 12.698 14.517 12.134 14.663 11.583 14.769 11.034 14.841 10.776 15.195 10.837 15.406 10.76 15.714 10.702 16.037 10.69 16.346 10.734ZM19.801 11.245C19.824 11.6 19.726 11.96 19.513 12.247 19.305 12.534 19.452 12.89 19.58 13.176 19.653 13.326 19.829 13.559 19.534 13.526 18.883 13.601 18.387 14.07 17.886 14.447 17.588 14.692 17.274 14.918 16.979 15.165 17.146 15.263 17.517 15.161 17.727 15.063 18.17 14.837 18.586 14.544 19.076 14.426 19.572 14.287 20.092 14.156 20.49 13.811 21.061 13.349 21.595 12.838 22.072 12.28 22.344 11.943 22.56 11.561 22.873 11.257 23.372 11.271 23.803 11.571 24.187 11.863 24.412 12.046 24.635 12.263 24.762 12.522 24.743 12.98 24.412 13.342 24.13 13.672 23.828 14.004 23.49 14.301 23.135 14.574 23.246 14.685 23.371 14.792 23.534 14.806 23.696 14.835 23.581 14.926 23.521 15.001 23.174 15.487 22.689 15.85 22.164 16.124 22.004 16.219 21.812 16.297 21.68 16.417 22.505 16.3 23.215 15.816 24.02 15.62 24.487 15.477 25.014 15.419 25.394 15.084 25.752 14.723 25.892 14.189 26.293 13.866 26.524 13.716 26.752 13.972 26.846 14.166 26.93 14.283 26.876 14.435 26.89 14.569 26.889 14.69 26.906 14.815 26.835 14.922 26.559 15.599 26.022 16.183 25.347 16.474 24.483 16.739 23.59 16.892 22.724 17.15 21.153 17.603 19.628 18.199 18.103 18.787 17.085 19.194 16.06 19.588 15.066 20.051 14.436 20.42 13.905 20.93 13.346 21.393 12.27 22.3 11.171 23.258 9.807 23.697 9.078 23.929 8.261 24.103 7.524 23.801 6.368 23.349 5.315 22.601 4.068 22.404 3.365 22.303 2.651 22.317 1.947 22.219 1.666 22.215 1.64 21.83 1.465 21.659 1.009 20.936 0.465 20.258 0.134 19.464-0.046 19.065-0.052 18.592 0.16 18.203 0.482 17.581 1.009 17.096 1.537 16.649 1.741 16.558 2.006 16.209 2.211 16.319 2.427 16.828 2.292 17.4 2.462 17.921 2.548 18.145 2.574 18.459 2.839 18.544 3.392 18.783 3.995 18.508 4.564 18.656 5.295 18.822 5.868 19.456 6.648 19.448 7.694 19.47 8.695 19.081 9.632 18.655 10.148 18.397 10.678 18.126 11.08 17.703 11.152 17.619 11.241 17.521 11.07 17.574 10.162 17.677 9.316 18.077 8.409 18.18 7.994 18.204 7.556 18.215 7.18 18.01 6.534 17.72 5.995 17.238 5.344 16.959 4.948 16.808 4.521 16.772 4.1 16.772 3.737 16.748 3.294 16.712 3.086 16.363 2.689 15.777 2.337 15.155 2.076 14.496 2.045 14.388 1.966 14.234 2.131 14.215 2.399 14.063 2.777 14.074 2.98 14.329 3.286 14.65 3.417 15.173 3.876 15.325 4.036 15.374 4.557 15.542 4.311 15.212 4.178 15.02 3.9 14.919 3.796 14.733 3.888 14.666 3.961 14.508 4.082 14.505 4.379 14.506 4.72 14.615 4.83 14.921 4.949 15.225 4.676 15.479 4.651 15.773 4.558 15.943 4.696 16.263 4.835 15.974 4.928 15.729 5.237 15.758 5.451 15.731 5.592 15.722 5.732 15.714 5.873 15.705 5.688 15.446 5.468 15.206 5.331 14.917 5.361 14.635 5.815 14.601 5.742 14.282 5.707 13.921 5.536 13.594 5.422 13.256 5.427 13.092 5.41 12.924 5.445 12.762 5.673 12.635 5.96 12.73 6.21 12.747 6.541 12.754 6.483 13.155 6.468 13.386 6.418 13.907 6.25 14.408 6.147 14.918 6.132 15.284 6.161 15.668 6.372 15.982 6.486 16.134 6.619 16.383 6.778 16.433 6.78 16.127 6.667 15.824 6.699 15.518 6.829 15.357 7.214 15.442 7.25 15.287 6.963 14.744 6.781 14.082 7.005 13.485 7.115 13.165 7.481 12.838 7.83 13.013 8.215 13.242 8.305 13.739 8.294 14.153 8.284 14.319 8.292 14.489 8.216 14.642 8.13 14.901 8.03 15.157 7.953 15.418 7.939 15.736 7.995 16.061 8.175 16.33 8.27 16.488 8.39 16.628 8.51 16.766 8.518 16.43 8.495 16.091 8.535 15.757 8.647 15.544 9.244 15.738 8.999 15.378 8.773 14.849 8.654 14.26 8.723 13.686 8.769 13.257 9.109 12.836 9.564 12.832 9.819 12.805 10.077 12.807 10.331 12.846 10.368 13.531 10.106 14.181 9.875 14.813 9.84 15.039 9.551 15.358 9.748 15.544 9.939 15.786 9.969 16.108 10.035 16.4 10.288 16.138 10.312 15.759 10.416 15.429 10.5 15.219 10.675 15.067 10.824 14.903 10.725 14.598 10.632 14.28 10.704 13.957 10.761 13.569 10.745 13.167 10.85 12.787 10.981 12.506 11.305 12.377 11.597 12.35 11.772 12.825 11.815 13.359 11.632 13.839 11.55 14.154 11.395 14.455 11.361 14.78 11.579 14.754 11.774 14.639 11.987 14.605 12.094 14.801 11.95 15.067 11.908 15.282 11.832 15.533 11.749 15.783 11.669 16.033 12.005 15.714 12.357 15.367 12.452 14.894 12.525 14.656 12.498 14.391 12.611 14.166 12.87 14.175 13.132 14.205 13.391 14.2L13.942 14.073C14.042 14.274 13.93 14.514 13.915 14.727 13.88 14.995 13.789 15.265 13.801 15.534 14.013 15.418 14.188 15.2 14.335 15.001 14.602 14.62 14.627 14.144 14.716 13.703 14.892 13.533 15.192 13.535 15.415 13.429 15.625 13.367 15.83 13.275 16.042 13.227 16.184 13.225 16.326 13.223 16.467 13.221 16.479 13.539 16.441 13.858 16.321 14.155 16.259 14.319 16.159 14.399 16.289 14.505 16.334 14.941 16.671 14.411 16.806 14.284 17.121 13.882 17.023 13.343 17.075 12.87 17.093 12.591 17.515 12.6 17.685 12.416 18.041 12.183 18.337 11.864 18.727 11.682 19.064 11.489 19.386 11.264 19.746 11.115 19.789 11.139 19.789 11.203 19.801 11.245ZM14.006 11.544C14.082 11.583 14.226 11.579 14.172 11.7 14.105 12.314 13.985 12.942 13.686 13.489 13.55 13.774 13.212 13.863 12.926 13.779 12.662 13.75 12.409 13.572 12.365 13.298 12.288 12.901 12.309 12.486 12.373 12.089 12.526 11.855 12.801 11.732 13.039 11.6 13.336 11.436 13.69 11.423 14.006 11.544ZM3.982 12.547L4.412 12.613C4.505 13.007 4.26 13.387 4.013 13.673 3.884 13.781 3.549 14.254 3.507 13.869 3.42 13.421 3.37 12.944 3.496 12.5 3.639 12.466 3.828 12.538 3.982 12.547ZM17.24 17.618C15.977 17.784 14.729 18.104 13.554 18.601 12.21 19.165 11.251 20.309 10.049 21.092 9.299 21.565 8.411 21.95 7.506 21.796 6.454 21.636 5.649 20.875 4.699 20.464 4.121 20.212 3.473 20.201 2.86 20.305 2.399 20.373 1.916 20.315 1.507 20.082 1.23 19.941 1.545 20.335 1.583 20.452 1.808 20.835 1.99 21.289 2.409 21.503 2.737 21.735 3.163 21.707 3.528 21.59 3.97 21.457 4.447 21.294 4.905 21.459 5.467 21.661 5.922 22.069 6.434 22.364 7.082 22.764 7.811 23.147 8.597 23.074 9.345 23.045 10.023 22.681 10.665 22.33 11.578 21.824 12.402 21.177 13.169 20.473 14.081 19.668 14.952 18.759 16.101 18.295 16.89 17.99 17.726 17.839 18.528 17.575 18.098 17.575 17.668 17.57 17.24 17.618Z" fill-rule="evenodd"></path><path transform="matrix(0.816527,0,0,0.816527,22.284273,25.336751)" stroke="#000000" fill="none" d="M24.238 0.087C26.303 0.415 28.392 0.539 30.479 0.64 32.518 0.758 34.571 0.799 36.589 1.147 38.111 1.426 39.606 1.837 41.097 2.251 42.502 2.661 43.915 3.076 45.252 3.681 45.701 3.915 46.183 4.079 46.681 4.173 48.104 4.451 49.547 4.602 50.974 4.859 53.09 5.224 55.207 5.767 57.103 6.801 58.176 7.356 59.112 8.14 59.933 9.019 62.16 11.375 63.799 14.227 65.06 17.198 65.699 18.728 66.256 20.294 66.695 21.892 67.182 23.687 67.046 25.574 67.434 27.386 67.596 28.249 67.871 29.087 68.016 29.953 68.072 30.504 68.058 31.061 68.033 31.613 67.948 32.451 67.747 33.272 67.587 34.097 67.207 35.891 66.739 37.717 65.713 39.263 64.995 40.359 63.933 41.192 62.76 41.756 61.145 42.537 59.382 42.962 57.785 43.784 56.865 44.244 55.927 44.68 54.931 44.946 52.521 45.626 49.971 45.577 47.511 45.232 47.194 45.192 46.879 45.126 46.56 45.101 46.767 45.303 47.04 45.433 47.29 45.579 48.324 46.126 49.487 46.364 50.643 46.466 50.795 46.487 51.201 46.596 51.137 46.742 50.168 47.04 49.188 47.319 48.266 47.745 49.11 47.834 49.958 47.716 50.796 47.619 53.134 47.311 55.42 46.647 57.578 45.699 58.11 45.464 58.688 45.308 59.275 45.352 59.432 45.369 59.836 45.317 59.614 45.563 59.542 45.659 59.514 45.808 59.378 45.831 58.045 46.358 56.696 46.847 55.339 47.312 52.58 48.224 49.723 48.931 46.806 49.029 46.455 49.064 46.089 49.049 45.753 49.168 46.367 49.532 47.06 49.753 47.759 49.882 49.033 50.077 50.337 50.026 51.599 49.779 54.026 49.32 56.334 48.4 58.586 47.407 59.3 47.102 60.003 46.767 60.736 46.509 60.976 46.4 60.735 46.685 60.678 46.762 60.05 47.493 59.184 47.958 58.346 48.407L58.084 48.545C58.975 48.423 59.811 48.054 60.611 47.659 61.957 46.95 63.224 46.046 64.21 44.878 64.588 44.425 64.907 43.913 65.094 43.351 64.927 43.315 64.637 43.57 64.417 43.626 63.635 43.95 62.813 44.201 61.967 44.274 62.266 43.94 62.671 43.726 63.05 43.496 63.785 43.057 64.58 42.648 65.104 41.948 65.325 41.663 65.436 41.307 65.662 41.027 65.899 41.204 66.064 41.466 66.225 41.712 66.609 42.37 66.546 43.197 66.246 43.875 65.875 44.708 65.313 45.448 64.667 46.089 63.573 47.145 62.206 47.864 60.824 48.471 58.577 49.43 56.208 50.095 53.802 50.511 52.951 50.675 52.064 50.691 51.243 50.99 51.125 51.057 50.755 51.165 50.817 51.269 51.632 51.431 52.459 51.534 53.291 51.533 53.942 51.553 54.592 51.514 55.243 51.486 55.327 51.522 54.962 51.635 54.861 51.696 54.511 51.846 54.165 52.008 53.812 52.147 53.182 52.294 52.547 52.433 51.899 52.464 50.748 52.546 49.594 52.592 48.443 52.673 48.761 52.88 49.119 53.024 49.423 53.251 48.935 53.623 48.288 53.815 47.935 54.347 47.8 54.548 47.758 54.8 47.764 55.035 47.862 55.27 48.011 55.498 48.259 55.592 48.606 55.748 48.875 56.019 49.167 56.253 49.344 56.383 49.562 56.427 49.775 56.458 49.773 55.986 49.724 55.512 49.778 55.043 49.866 54.599 50.313 54.378 50.675 54.181 51.299 53.837 52.014 53.717 52.717 53.672 54.311 53.558 55.928 53.536 57.485 53.139 58.564 52.847 59.582 52.356 60.536 51.778 61.677 51.081 62.668 50.153 63.469 49.085 64.24 48.084 64.959 47.034 65.871 46.151L66.387 45.628C66.774 46.036 66.998 46.646 66.822 47.198 66.617 47.972 66.026 48.55 65.438 49.054 65.048 49.39 64.608 49.662 64.248 50.033 62.911 51.298 61.667 52.697 60.067 53.643 58.83 54.4 57.392 54.785 55.949 54.849 54.892 54.899 53.832 54.844 52.776 54.913 52.255 54.97 51.657 55.123 51.382 55.615 51.22 55.888 51.186 56.209 51.169 56.519 51.449 56.657 51.747 56.767 52.054 56.824 52.582 56.829 53.119 56.835 53.626 56.663 54.292 56.474 54.906 56.148 55.539 55.875 55.914 55.74 56.285 55.56 56.687 55.522 56.039 56.176 55.193 56.577 54.346 56.906 53.043 57.393 51.681 57.722 50.302 57.9 48.905 58.071 47.467 57.953 46.102 58.357 45.309 58.594 44.487 58.874 43.873 59.452 43.615 59.685 43.458 60.017 43.459 60.364 43.44 60.471 43.581 60.519 43.637 60.596 44.17 61.03 44.904 61.029 45.554 60.97 46.466 60.87 47.353 60.625 48.235 60.381 47.973 60.331 47.704 60.296 47.445 60.236 47.221 60.09 47.002 59.937 46.788 59.777 46.798 59.489 46.898 59.196 47.138 59.019 47.64 58.634 48.295 58.545 48.906 58.474 50.159 58.362 51.426 58.399 52.67 58.19 54.733 57.867 56.755 57.261 58.65 56.382 59.795 55.843 60.897 55.186 61.84 54.337 62.465 53.772 63.003 53.108 63.389 52.356 63.509 52.16 63.606 51.947 63.738 51.761L64.714 50.831C64.552 51.944 64.088 53.015 63.356 53.872 62.268 55.162 60.755 55.988 59.235 56.667 56.842 57.763 54.334 58.628 51.743 59.11 51.058 59.247 50.362 59.333 49.676 59.459 49.829 59.567 50.114 59.606 50.315 59.686 50.728 59.816 51.143 59.938 51.553 60.078 51.388 60.272 51.067 60.322 50.83 60.428 49.682 60.798 48.51 61.09 47.34 61.379 46.155 61.65 44.96 61.969 43.735 61.956 42.679 61.931 41.667 61.585 40.621 61.475 39.75 61.361 38.871 61.323 37.993 61.291 38.223 61.546 38.552 61.692 38.868 61.814 39.466 62.052 40.146 62.18 40.626 62.639 40.655 62.698 40.849 62.78 40.727 62.816 39.834 63.251 38.863 63.495 37.896 63.701 36.231 64.049 34.532 64.205 32.87 64.57 32.187 64.734 31.503 65.014 30.997 65.515 30.762 65.743 30.586 66.15 30.823 66.438 31.135 66.773 31.633 66.799 32.062 66.806 33.28 66.774 34.456 66.416 35.631 66.13 36.979 65.79 38.328 65.397 39.723 65.311 40.48 65.26 41.22 65.475 41.976 65.463 43.325 65.479 44.642 65.143 45.964 64.919 47.001 64.724 48.056 64.598 49.112 64.616 49.167 64.638 49.448 64.616 49.331 64.681 48.995 64.911 48.626 65.104 48.342 65.398 48.2 65.511 48.419 65.478 48.496 65.499 50.07 65.608 51.683 65.48 53.166 64.915 54.447 64.437 55.61 63.704 56.818 63.075 57.912 62.48 59.049 61.965 60.218 61.537 61.049 61.232 61.884 60.906 62.601 60.377 63.323 59.848 63.945 59.183 64.446 58.442 64.851 57.821 65.106 57.108 65.563 56.52 65.641 56.461 65.729 56.271 65.812 56.422 66.279 56.843 66.294 57.549 66.116 58.11 65.779 59.186 64.912 59.985 64.012 60.612 62.855 61.437 61.556 62.023 60.286 62.646 58.104 63.696 55.926 64.752 53.741 65.795 52.741 66.264 51.694 66.661 50.593 66.806 49.784 66.933 48.969 67.059 48.198 67.349 47.228 67.682 46.32 68.166 45.365 68.538 44.457 68.873 43.472 68.808 42.521 68.857 41.134 68.902 39.75 69.008 38.362 69.037 38.579 68.586 39.042 68.3 39.528 68.226 40.944 67.927 42.396 67.811 43.799 67.442 44.521 67.245 45.247 66.947 45.783 66.409 45.94 66.267 45.748 66.295 45.632 66.307 44.583 66.441 43.552 66.768 42.484 66.707 41.437 66.669 40.397 66.488 39.347 66.534 38.419 66.568 37.511 66.804 36.62 67.053 35.484 67.369 34.38 67.868 33.187 67.921 31.486 68.013 29.783 67.79 28.122 67.439 25.676 66.904 23.272 66.16 20.786 65.822 19.928 65.699 19.099 65.403 18.36 64.95 17.67 64.533 17.003 64.079 16.309 63.669 15.513 63.179 14.705 62.709 13.917 62.206 14.242 62.051 14.621 62.072 14.973 62.059 16.3 62.081 17.623 62.306 18.886 62.711 20.371 63.205 21.691 64.107 23.211 64.504 24.632 64.901 26.115 65 27.584 64.98 27.756 64.986 27.928 64.983 28.094 64.931 28.512 64.854 28.979 64.679 29.159 64.26 29.232 64.002 29.245 63.717 29.167 63.459 30.445 63.44 31.725 63.453 33.003 63.393 33.994 63.315 35.009 63.198 35.921 62.775 36.292 62.602 36.626 62.34 36.84 61.988 36.361 61.545 35.694 61.352 35.271 60.84 35.219 60.777 35.092 60.708 35.224 60.658 35.653 60.355 36.185 60.256 36.679 60.107 37.465 59.884 38.285 59.75 39.025 59.393 39.504 59.159 39.861 58.696 40.405 58.593 41.876 58.196 43.389 57.962 44.842 57.499 45.516 57.271 46.179 56.802 46.406 56.1 46.594 55.531 46.235 54.945 45.782 54.621 45.666 54.571 45.823 54.477 45.847 54.405 46.105 54.018 46.399 53.642 46.568 53.209 46.559 53.044 46.582 52.872 46.554 52.711 46.264 51.98 45.72 51.391 45.229 50.791 44.538 50.002 43.867 49.183 43.044 48.525 42.447 48.053 41.72 47.789 41.084 47.378 42.046 47.231 43.023 47.263 43.993 47.238 44.589 47.226 45.186 47.228 45.78 47.208 46.225 47.127 46.697 47.058 47.054 46.756 46.999 46.491 46.718 46.278 46.514 46.095 45.71 45.482 44.781 45.054 43.841 44.692 43.273 44.475 42.684 44.318 42.084 44.222 41.776 43.992 41.583 43.636 41.275 43.41 40.949 43.285 40.643 43.115 40.378 42.886 40.045 42.677 40.625 42.769 40.774 42.727 41.635 42.656 42.5 42.657 43.362 42.711 44.164 42.745 44.988 42.817 45.771 42.597 46.107 42.505 46.386 42.273 46.559 41.974 46.77 41.634 46.988 41.217 47.419 41.136 47.865 40.982 48.354 40.936 48.765 40.694 49.043 40.542 49.211 40.236 49.189 39.92 49.182 39.354 48.892 38.847 48.713 38.322 48.628 38.068 48.513 37.817 48.475 37.55 49.79 37.758 51.12 37.999 52.457 37.888 52.909 37.847 53.444 37.72 53.647 37.263 53.778 36.865 53.518 36.483 53.46 36.096 53.872 35.867 54.29 35.601 54.516 35.17 54.561 35.056 54.717 34.906 54.553 34.827 53.973 34.252 53.14 33.958 52.68 33.259 52.417 32.805 52.211 32.287 51.772 31.967 51.084 31.429 50.203 31.265 49.373 31.07 48.944 30.974 48.51 30.896 48.084 30.788 48.229 30.665 48.563 30.676 48.781 30.62 49.969 30.432 51.178 30.296 52.321 29.902 52.745 29.733 53.21 29.536 53.46 29.132 53.667 28.759 53.493 28.309 53.225 28.017 52.951 27.679 52.595 27.419 52.323 27.08 52.234 26.842 52.215 26.575 52.056 26.365 51.638 25.715 50.871 25.452 50.188 25.183 49.878 25.055 49.556 24.951 49.261 24.794 49.936 24.62 50.604 24.406 51.297 24.315 51.828 24.218 52.375 24.168 52.884 23.98 53.163 23.875 53.242 23.542 53.506 23.412 54.23 22.979 55.15 23.012 55.841 22.511 56.422 22.048 56.55 21.092 56.04 20.529 55.354 19.741 54.286 19.384 53.677 18.517 53.463 18.215 53.204 17.914 52.832 17.813 51.794 17.458 50.677 17.44 49.63 17.122 49.482 16.897 49.632 16.545 49.606 16.27 49.627 16.013 49.586 15.743 49.416 15.541 49.347 15.445 49.214 15.422 49.119 15.357 48.965 15.247 48.632 15.135 48.626 14.955 49.119 14.777 49.616 14.525 49.911 14.073 50.062 13.859 50.148 13.61 50.217 13.36 49.623 13.063 48.964 12.926 48.318 12.791 46.452 12.451 44.548 12.429 42.659 12.333 41.845 12.286 41.029 12.263 40.22 12.16 40.075 12.087 40.461 11.984 40.527 11.927 41.65 11.398 42.918 11.37 44.136 11.336 45.92 11.323 47.727 11.352 49.475 10.934 50.316 10.729 51.194 10.469 51.851 9.878 52.232 9.544 52.438 8.995 52.26 8.504 52.021 7.792 51.397 7.3 50.788 6.907 49.746 6.252 48.532 5.915 47.311 5.815 46.144 5.7 44.964 5.605 43.839 5.254 42.885 4.965 41.916 4.68 40.913 4.639 39.483 4.558 38.06 4.79 36.63 4.756 35.93 4.761 35.233 4.652 34.552 4.496 34.598 4.462 34.72 4.423 34.794 4.387 35.14 4.219 35.513 4.124 35.895 4.081 37.309 3.879 38.744 3.9 40.159 3.708 40.238 3.676 40.499 3.695 40.337 3.58 39.8 3.168 39.132 2.969 38.477 2.836 37.141 2.58 35.768 2.573 34.445 2.246 33.143 1.964 31.848 1.63 30.523 1.47 30.059 1.431 29.589 1.366 29.124 1.42 28.955 1.43 29.166 1.478 29.225 1.51 29.858 1.77 30.494 2.025 31.137 2.261 31.361 2.378 31.639 2.516 31.724 2.768 31.503 2.919 31.199 2.905 30.937 2.921 30.269 2.952 29.608 2.834 28.967 2.656 27.834 2.345 26.713 1.979 25.628 1.528 24.881 1.204 24.101 0.792 23.675 0.066 23.618-0.091 23.97 0.085 24.068 0.06 24.125 0.069 24.181 0.078 24.238 0.087Z" fill-rule="evenodd"></path><path transform="matrix(0.816527,0,0,0.816527,22.284273,25.336751)" stroke="#000000" fill="none" d="M30.383 4.06C30.498 4.07 30.764 4.106 30.533 4.201 29.575 4.768 28.454 4.921 27.392 5.192 27.06 5.278 26.717 5.343 26.402 5.481 26.685 5.626 27.013 5.666 27.324 5.729 27.597 5.793 27.881 5.753 28.16 5.765 29.012 5.787 29.86 5.699 30.705 5.597 31.436 5.52 32.174 5.43 32.91 5.477 33.079 5.486 33.16 5.572 32.969 5.609 32.099 5.963 31.173 6.152 30.255 6.333 29.382 6.485 28.489 6.646 27.603 6.503 26.734 6.385 25.873 6.197 24.994 6.169 22.767 6.023 20.524 5.998 18.304 6.263 17.608 6.328 16.92 6.46 16.248 6.651 15.345 6.88 14.403 7.147 13.468 6.95 13.237 6.87 12.822 6.836 12.729 6.629 13.276 6.247 13.969 6.295 14.6 6.202 15.765 6.062 16.888 5.708 18.026 5.439 18.986 5.231 19.963 5.083 20.947 5.096 22.611 5.064 24.288 5.158 25.936 4.869 26.92 4.751 27.832 4.344 28.786 4.103 29.308 3.968 29.853 4 30.383 4.06Z" fill-rule="evenodd"></path><path transform="matrix(0.816527,0,0,0.816527,22.284273,25.336751)" stroke="none" fill="#000000" d="M33.01 7.085C32.758 7.363 32.407 7.531 32.094 7.731 31.044 8.334 29.968 8.903 28.834 9.33 27.839 9.716 26.765 9.799 25.708 9.818 24.923 9.821 24.146 9.942 23.375 10.08 23.128 10.123 22.881 10.171 22.629 10.163 22.11 10.177 21.581 10.207 21.075 10.06 19.667 9.74 18.259 9.42 16.863 9.056 16.6 8.974 16.272 8.924 16.146 8.644 16.038 8.54 16.234 8.57 16.298 8.541 17.1 8.374 17.919 8.287 18.738 8.306 20.006 8.318 21.245 8.641 22.506 8.73 22.738 8.729 22.974 8.745 23.204 8.727 24.369 8.398 25.547 8.113 26.743 7.918 28.7 7.579 30.662 7.246 32.639 7.043 32.757 7.046 32.951 7.009 33.033 7.04L33.01 7.085Z" fill-rule="evenodd"></path><path transform="matrix(0.816527,0,0,0.816527,22.284273,25.336751)" stroke="none" fill="#000000" d="M25.228 11.332C25.392 11.344 25.737 11.375 25.417 11.488 24.71 11.858 23.944 12.085 23.205 12.38 21.971 12.861 20.73 13.334 19.451 13.686 18.017 14.106 16.532 14.371 15.035 14.386 13.435 14.431 11.844 14.23 10.249 14.151 9.674 14.132 9.098 14.132 8.524 14.138 8.272 14.201 8.006 14.227 7.771 14.336 7.996 14.423 8.265 14.458 8.509 14.52 9.089 14.65 9.678 14.752 10.232 14.976 11.16 15.323 12.082 15.701 13.058 15.892 13.846 16.071 14.648 16.198 15.426 16.418 15.537 16.475 15.253 16.55 15.214 16.6 14.744 16.84 14.204 16.982 13.838 17.385 13.573 17.612 14.136 17.583 14.288 17.652 15.558 17.872 16.883 17.865 18.095 18.353 18.722 18.609 19.327 18.926 19.885 19.309 19.881 19.572 19.586 19.858 19.388 20.059 18.876 20.457 18.126 20.397 17.676 20.896 17.19 21.453 17.291 22.26 16.954 22.888 16.598 23.504 15.76 23.672 15.128 23.423 14.52 23.193 14.14 22.639 13.732 22.163 14.342 22.128 15.003 22.182 15.533 21.825 15.753 21.688 15.907 21.459 15.984 21.218 15.976 20.878 15.929 20.529 15.726 20.246 15.119 19.329 14.172 18.711 13.22 18.199 12.665 17.886 12.072 17.655 11.479 17.427 11.29 17.352 11.107 17.262 10.924 17.174 10.859 16.604 10.38 16.173 9.888 15.939 9.019 15.566 8.078 15.417 7.175 15.15 6.319 14.927 5.513 14.546 4.764 14.079 4.319 13.81 3.881 13.529 3.448 13.243 6.493 13.211 9.538 13.157 12.584 13.164 13.023 13.16 13.463 13.17 13.902 13.159 15.168 12.971 16.4 12.611 17.644 12.317 19.617 11.845 21.608 11.352 23.645 11.286 24.173 11.279 24.702 11.286 25.228 11.332Z" fill-rule="evenodd"></path><path transform="matrix(0.816527,0,0,0.816527,22.284273,25.336751)" stroke="#000000" fill="none" d="M11.402 22.861C12.148 23.032 12.864 23.311 13.574 23.593 13.746 23.663 13.915 23.743 14.084 23.821 11.799 24.68 9.508 25.523 7.225 26.389 7.405 26.46 7.671 26.431 7.885 26.447 8.903 26.481 9.923 26.375 10.912 26.132 12.534 25.765 14.127 25.191 15.804 25.138 16.087 25.13 16.372 25.103 16.654 25.132 16.479 25.285 16.245 25.421 16.044 25.566 15.078 26.235 14.091 26.875 13.138 27.563 12.972 27.741 13.511 27.607 13.633 27.645 15.207 27.615 16.803 27.543 18.353 27.878 18.53 27.937 18.955 28.07 18.921 28.216 17.324 28.625 15.769 29.188 14.163 29.562 13.606 29.676 13.023 29.818 12.458 29.685 12.147 29.608 12.08 29.252 11.867 29.057 11.154 28.277 10.098 27.96 9.087 27.793 7.791 27.567 6.473 27.529 5.172 27.343 4.856 27.284 4.528 27.25 4.229 27.128 4.309 26.902 4.57 26.753 4.742 26.58 5.999 25.524 7.33 24.561 8.619 23.545 9.267 23.079 10.062 22.779 10.868 22.821 11.047 22.825 11.226 22.834 11.402 22.861Z" fill-rule="evenodd"></path><path transform="matrix(0.816527,0,0,0.816527,22.284273,25.336751)" stroke="#000000" fill="none" d="M65.634 53.462C65.685 53.565 65.742 53.666 65.719 53.784 65.712 53.96 65.73 54.14 65.707 54.313 65.493 55.028 65.101 55.676 64.638 56.257 63.978 57.085 63.241 57.858 62.411 58.517 61.366 59.258 60.139 59.674 58.943 60.098 57.999 60.425 57.063 60.78 56.169 61.228 54.913 61.814 53.663 62.444 52.317 62.799 52.064 62.851 51.812 62.931 51.554 62.947 50.148 62.963 48.731 62.917 47.347 63.207 46.361 63.389 45.397 63.685 44.403 63.825 43.986 63.87 43.563 63.913 43.144 63.86 43.732 63.342 44.499 63.101 45.249 62.925 46.559 62.616 47.907 62.536 49.238 62.359 49.767 62.261 50.276 62.079 50.8 61.964 51.907 61.692 53.023 61.448 54.095 61.058 56.55 60.196 58.926 59.074 61.078 57.605 62.165 56.845 63.223 55.998 64.008 54.917 64.357 54.452 64.578 53.908 64.904 53.429 65.011 53.298 65.185 53.075 65.347 53.08 65.467 53.187 65.567 53.315 65.634 53.462Z" fill-rule="evenodd"></path><path transform="matrix(0.816527,0,0,0.816527,22.284273,25.336751)" stroke="none" fill="#000000" d="M7.22 55.815C8.98 55.96 10.732 56.271 12.407 56.838 12.979 57.033 13.576 57.162 14.183 57.163 15.051 57.201 15.919 57.142 16.785 57.079 17.023 57.632 17.295 58.172 17.492 58.74 16.935 58.86 16.365 58.94 15.795 58.958 15.009 58.971 14.213 58.946 13.451 58.732 11.642 58.317 10.101 57.201 8.323 56.696 7.474 56.434 6.606 56.233 5.769 55.931 5.652 55.82 6.068 55.839 6.149 55.81 6.505 55.775 6.864 55.792 7.22 55.815Z" fill-rule="evenodd"></path><path transform="matrix(0.816527,0,0,0.816527,22.284273,25.336751)" stroke="none" fill="#000000" d="M2.387 55.948C3.938 56.329 5.544 56.47 7.065 56.974 8.86 57.536 10.478 58.55 12.288 59.068 13.315 59.36 14.393 59.307 15.447 59.398 16.06 59.449 16.678 59.473 17.283 59.587 17.489 59.629 17.889 59.803 17.86 59.971 16.3 60.387 14.759 60.881 13.174 61.191 12.338 61.359 11.485 61.433 10.633 61.425 10.33 61.429 10.02 61.463 9.751 61.61 10.548 61.989 11.397 62.243 12.218 62.563 13.397 63.012 14.59 63.479 15.623 64.218 15.948 64.461 16.264 64.742 16.453 65.108 15.396 64.964 14.343 64.791 13.293 64.61 12.486 64.416 11.694 64.101 11.04 63.58 10.2 62.963 9.359 62.278 8.333 62.005 8.082 61.948 7.83 61.883 7.571 61.894 6.727 61.861 5.873 61.885 5.05 61.668 3.601 61.325 2.239 60.706 0.902 60.066 1.223 59.877 1.592 59.798 1.961 59.783 3.03 59.691 4.093 59.529 5.166 59.501 5.863 59.483 6.564 59.466 7.259 59.534 8.12 59.678 8.951 59.957 9.8 60.156 10.836 60.4 11.89 60.639 12.961 60.626 13.147 60.609 13.342 60.64 13.513 60.55 13.629 60.489 13.934 60.438 13.898 60.359 12.397 60.049 10.852 59.937 9.382 59.479 8.65 59.24 7.976 58.858 7.289 58.516 6.442 58.056 5.56 57.642 4.617 57.422 3.2 57.04 1.702 57.283 0.28 56.938 0.213 56.902-0.125 56.874 0.098 56.819 0.74 56.553 1.343 56.203 1.959 55.884 2.094 55.829 2.247 55.931 2.387 55.948Z" fill-rule="evenodd"></path><path transform="matrix(0.816527,0,0,0.816527,22.284273,25.336751)" stroke="#000000" fill="none" d="M66.772 33.148C66.214 33.567 65.681 34.025 65.073 34.373 63.612 35.25 61.908 35.66 60.215 35.725 58.812 35.815 57.381 35.781 56.016 36.167 55.746 36.236 55.498 36.423 55.425 36.703 55.325 36.84 55.565 36.889 55.646 36.949 56.484 37.304 57.419 37.272 58.31 37.248 59.473 37.194 60.631 37.067 61.794 37.05 61.966 37.023 61.688 37.226 61.676 37.285 61.017 38.003 60.058 38.335 59.137 38.567 58.073 38.816 56.982 38.949 55.891 38.995 54.422 39.025 52.95 39.023 51.482 38.935 51.249 38.914 51.012 38.917 50.781 38.875 51.625 39.639 52.743 40.017 53.847 40.21 55.762 40.532 57.717 40.338 59.615 39.998 59.72 39.98 59.826 39.945 59.924 40.004 60.096 39.992 60.504 40.277 60.14 40.312 59.456 40.524 58.779 40.76 58.119 41.038 58.117 41.171 58.532 41.145 58.681 41.186 59.97 41.341 61.306 41.153 62.478 40.585 64.216 39.749 65.644 38.275 66.412 36.505 66.664 35.912 66.818 35.262 66.738 34.615 66.732 34.384 66.701 34.151 66.708 33.921 66.764 33.646 66.828 33.373 66.875 33.096 66.838 33.107 66.806 33.13 66.772 33.148Z" fill-rule="evenodd"></path><path transform="matrix(0.816527,0,0,0.816527,22.284273,25.336751)" stroke="#000000" fill="none" d="M54.326 13.363C54.421 13.655 54.638 13.889 54.903 14.036 55.332 14.335 55.847 14.551 56.159 14.988 56.315 15.224 56.302 15.514 56.319 15.784 55.133 15.808 53.979 15.464 52.799 15.425 52.308 15.423 51.814 15.454 51.335 15.563 51.277 15.654 51.657 15.702 51.759 15.768 53.931 16.535 56.136 17.245 58.196 18.289 59.701 19.073 61.154 20.063 62.162 21.452 62.408 21.769 62.451 22.175 62.471 22.562 62.385 22.557 62.23 22.458 62.124 22.419 60.802 21.795 59.892 20.6 58.728 19.752 57.87 19.104 56.848 18.714 55.806 18.482 55.498 18.416 55.189 18.327 54.872 18.331 55.497 18.804 56.185 19.187 56.811 19.658 57.241 19.973 57.534 20.422 57.843 20.846 58.43 21.666 59.28 22.243 60.152 22.721 60.605 22.987 61.084 23.215 61.501 23.535 61.69 23.706 61.896 23.871 62.038 24.084 61.752 24.073 61.472 23.961 61.194 23.887 60.126 23.556 59.133 22.995 58.028 22.783 57.769 22.748 57.503 22.687 57.242 22.721 57.161 22.987 57.154 23.332 57.398 23.52 57.742 23.831 58.207 23.951 58.623 24.132 59.95 24.654 61.304 25.112 62.606 25.695 63.485 26.118 64.302 26.655 65.157 27.124 65.614 27.373 66.06 27.649 66.541 27.85 66.636 27.596 66.574 27.241 66.588 26.95 66.591 26.442 66.474 25.916 66.182 25.494 65.871 25.071 65.405 24.771 65.166 24.295 65.008 24.027 65.349 23.837 65.525 23.688 65.727 23.527 66.08 23.454 66.098 23.149 66.074 22.709 65.857 22.308 65.677 21.915 65.44 21.384 65.08 20.922 64.668 20.516 64.453 20.292 64.252 20.056 64.063 19.811 64.489 19.883 64.909 19.989 65.337 20.041 65.126 19.76 64.882 19.503 64.668 19.222 64.124 18.533 63.557 17.855 62.874 17.297 60.561 15.339 57.732 14.031 54.781 13.378 54.661 13.384 54.345 13.233 54.317 13.334L54.326 13.363Z" fill-rule="evenodd"></path><path transform="matrix(0.816527,0,0,0.816527,22.284273,25.336751)" stroke="#000000" fill="none" d="M53.027 7.057C53.324 7.444 53.747 7.71 54.134 8 54.696 8.422 55.324 8.808 55.707 9.416 55.87 9.68 55.933 9.991 55.917 10.299 55.388 10.304 54.859 10.309 54.331 10.315 54.211 10.567 54.149 10.871 53.92 11.051 53.492 11.104 53.061 11.072 52.631 11.077 52.366 11.076 52.114 11.246 51.995 11.48 52.201 11.72 52.471 11.907 52.788 11.962 53.592 12.132 54.422 12.138 55.223 12.323 56.83 12.661 58.333 13.37 59.758 14.168 61.092 14.927 62.34 15.827 63.531 16.791 63.426 16.257 63.169 15.766 62.918 15.288 62.135 13.9 61.168 12.621 60.115 11.428 58.731 9.873 57.009 8.635 55.138 7.733 54.446 7.399 53.716 7.146 52.971 6.96L53.027 7.057Z" fill-rule="evenodd"></path><path transform="matrix(0.816527,0,0,0.816527,22.284273,25.336751)" stroke="#000000" fill="none" d="M52.857 31.253C52.695 31.301 52.464 31.283 52.346 31.378 52.623 31.571 52.933 31.718 53.213 31.91 53.748 32.236 54.251 32.619 54.803 32.916 54.942 32.974 55.083 33.026 55.235 33.012 55.754 33.035 56.277 33.017 56.791 33.1 56.981 33.178 57.338 33.236 57.398 33.409 57.043 33.609 56.579 33.534 56.257 33.811 56.019 34.081 56.37 34.341 56.619 34.404 57.465 34.69 58.365 34.758 59.25 34.814 60.259 34.872 61.28 34.844 62.268 34.615 63.408 34.362 64.577 34.055 65.54 33.366 65.766 33.206 65.955 33.002 66.142 32.8 65.601 32.773 65.059 32.822 64.518 32.835 63.44 32.885 62.353 32.893 61.286 32.704 60.06 32.512 58.854 32.189 57.613 32.088 56.732 32.004 55.845 31.909 54.998 31.639 54.392 31.466 53.784 31.263 53.147 31.25 53.051 31.247 52.953 31.238 52.857 31.253Z" fill-rule="evenodd"></path><path transform="matrix(0.816527,0,0,0.816527,22.284273,25.336751)" stroke="#000000" fill="none" d="M53.584 25.151C53.333 25.219 53.107 25.348 52.874 25.46 53.049 25.632 53.242 25.791 53.485 25.852 53.826 25.968 53.9 26.364 53.962 26.674 53.974 26.962 54.113 27.236 54.394 27.342 55.118 27.686 55.928 27.79 56.719 27.857 57.139 27.883 57.633 27.955 57.876 28.346 57.989 28.448 57.776 28.395 57.71 28.413 56.998 28.444 56.274 28.425 55.581 28.612 55.349 28.686 54.995 28.84 55.095 29.144 55.259 29.735 55.841 30.067 56.387 30.245 57.424 30.58 58.525 30.51 59.599 30.542 60.195 30.555 60.791 30.55 61.387 30.574 62.34 30.663 63.295 30.732 64.252 30.752 65.286 30.778 66.244 31.267 67.276 31.296 67.577 31.29 67.436 30.84 67.389 30.65 67.144 30.032 66.583 29.615 66.056 29.245 64.744 28.379 63.275 27.791 61.803 27.257 59.625 26.478 57.382 25.891 55.122 25.405 54.654 25.318 54.197 25.155 53.72 25.136 53.674 25.137 53.629 25.142 53.584 25.151Z" fill-rule="evenodd"></path><path transform="matrix(0.816527,0,0,0.816527,22.284273,25.336751)" stroke="#000000" fill="none" d="M1.675 56.031C1.128 56.329 0.578 56.625 0 56.86 1.131 57.212 2.33 57.113 3.494 57.229 4.742 57.345 5.941 57.786 7.036 58.384 7.751 58.749 8.458 59.139 9.211 59.422 10.716 59.925 12.311 60.037 13.859 60.349 14.03 60.415 13.628 60.486 13.526 60.545 13.351 60.638 13.152 60.61 12.961 60.626 11.878 60.638 10.812 60.395 9.763 60.147 8.927 59.949 8.107 59.675 7.259 59.534 6.459 59.459 5.654 59.482 4.853 59.516 3.785 59.562 2.728 59.728 1.664 59.812 1.393 59.834 1.139 59.937 0.902 60.066 2.455 60.807 4.05 61.534 5.762 61.806 6.463 61.882 7.171 61.869 7.873 61.908 8.401 61.996 8.916 62.166 9.378 62.439 10.164 62.868 10.833 63.47 11.582 63.953 12.302 64.358 13.102 64.612 13.919 64.718 14.763 64.853 15.606 64.997 16.453 65.108 16.12 64.499 15.509 64.114 14.928 63.77 13.382 62.893 11.662 62.401 10.022 61.738 9.931 61.696 9.841 61.653 9.751 61.61 10.245 61.349 10.82 61.447 11.356 61.412 13.201 61.333 14.975 60.764 16.742 60.279 17.13 60.168 17.523 60.074 17.908 59.955 17.601 59.556 17.054 59.543 16.596 59.492 15.498 59.376 14.393 59.354 13.293 59.262 11.976 59.115 10.769 58.524 9.573 57.993 8.333 57.411 7.053 56.893 5.709 56.609 4.489 56.341 3.246 56.185 2.038 55.86 1.908 55.891 1.792 55.968 1.675 56.031Z" fill-rule="evenodd"></path><path transform="matrix(0.816527,0,0,0.816527,22.284273,25.336751)" stroke="#000000" fill="none" d="M23.257 11.3C21.118 11.438 19.034 11.981 16.959 12.486 15.925 12.733 14.897 13.027 13.841 13.163 10.873 13.158 7.905 13.181 4.937 13.227 4.44 13.233 3.944 13.24 3.448 13.243 4.401 13.854 5.345 14.509 6.412 14.907 7.508 15.31 8.678 15.466 9.768 15.886 10.278 16.096 10.771 16.496 10.905 17.052 10.891 17.163 10.967 17.208 11.061 17.239 11.701 17.548 12.392 17.744 13.015 18.091 14.022 18.616 15.032 19.24 15.69 20.19 15.895 20.468 15.979 20.81 15.98 21.152 16.001 21.284 15.897 21.396 15.848 21.511 15.532 21.982 14.929 22.117 14.396 22.136 14.175 22.147 13.953 22.154 13.732 22.163 14.149 22.65 14.54 23.222 15.172 23.438 15.805 23.67 16.633 23.482 16.97 22.861 17.288 22.236 17.198 21.445 17.676 20.896 18.168 20.348 19.036 20.473 19.528 19.927 19.627 19.735 19.998 19.477 19.848 19.281 18.903 18.66 17.857 18.153 16.73 17.982 15.857 17.821 14.964 17.795 14.095 17.611 13.921 17.579 13.584 17.535 13.87 17.354 14.306 16.894 14.966 16.795 15.474 16.445 15.168 16.314 14.828 16.276 14.505 16.196 13.412 15.963 12.303 15.777 11.26 15.362 10.506 15.087 9.765 14.757 8.97 14.622 8.57 14.532 8.168 14.452 7.772 14.346 7.919 14.243 8.137 14.233 8.318 14.183 8.571 14.104 8.838 14.144 9.099 14.135 10.136 14.119 11.171 14.202 12.204 14.285 14.139 14.439 16.108 14.473 18.013 14.048 19.665 13.688 21.27 13.141 22.84 12.52 23.478 12.267 24.127 12.042 24.765 11.79 25.041 11.663 25.328 11.553 25.584 11.39 25.313 11.306 25.016 11.325 24.733 11.302 24.241 11.284 23.748 11.273 23.257 11.3Z" fill-rule="evenodd"></path><path transform="matrix(0.816527,0,0,0.816527,22.276509,25.336751)" stroke="none" fill="#000000" d="M10.266 22.848C9.526 22.965 8.843 23.328 8.276 23.81 7.012 24.809 5.695 25.742 4.485 26.807 4.317 26.932 4.075 27.197 4.447 27.202 5.677 27.489 6.948 27.497 8.195 27.665 9.29 27.808 10.442 27.966 11.367 28.618 11.693 28.847 11.978 29.137 12.174 29.486 12.388 29.771 12.788 29.739 13.106 29.733 14.072 29.647 15.001 29.347 15.929 29.087 16.924 28.788 17.916 28.478 18.921 28.216 19.001 28.109 18.638 27.997 18.525 27.933 17.999 27.764 17.441 27.728 16.895 27.67 15.622 27.562 14.345 27.654 13.071 27.645 13.214 27.461 13.454 27.351 13.641 27.204 14.645 26.513 15.659 25.837 16.66 25.14 16.397 25.093 16.111 25.133 15.84 25.137 14.19 25.182 12.62 25.735 11.027 26.105 10.027 26.356 8.995 26.48 7.964 26.448 7.717 26.435 7.456 26.457 7.219 26.395 9.246 25.618 11.287 24.871 13.32 24.108 13.574 24.012 13.83 23.919 14.084 23.821 13.264 23.44 12.411 23.129 11.54 22.89 11.124 22.802 10.688 22.804 10.266 22.848Z" fill-rule="evenodd"></path><path transform="matrix(0.816527,0,0,0.816527,22.284273,25.336751)" stroke="#000000" fill="none" d="M6.092 55.816C5.974 55.822 5.526 55.877 5.866 55.968 7.231 56.434 8.669 56.691 9.974 57.326 11.159 57.867 12.321 58.498 13.606 58.769 14.416 58.975 15.26 58.977 16.089 58.946 16.56 58.902 17.032 58.845 17.492 58.74 17.295 58.172 17.023 57.632 16.785 57.079 15.682 57.158 14.569 57.236 13.467 57.108 12.691 56.982 11.963 56.665 11.202 56.478 9.832 56.114 8.423 55.9 7.009 55.803 6.704 55.787 6.397 55.782 6.092 55.816Z" fill-rule="evenodd"></path><path transform="matrix(0.816527,0,0,0.816527,22.284273,25.336751)" stroke="none" fill="#000000" d="M29.208 4.027C28.28 4.156 27.427 4.582 26.511 4.767 25.387 4.994 24.241 5.085 23.096 5.083 22.046 5.098 20.993 5.066 19.944 5.132 18.878 5.231 17.829 5.463 16.8 5.75 15.828 6.009 14.839 6.207 13.835 6.283 13.448 6.318 13.053 6.404 12.729 6.629 12.822 6.836 13.237 6.87 13.468 6.95 14.417 7.149 15.372 6.873 16.288 6.64 16.979 6.442 17.69 6.319 18.406 6.252 20.825 5.972 23.269 6.031 25.693 6.221 26.805 6.33 27.91 6.679 29.035 6.517 30.203 6.375 31.361 6.14 32.485 5.791 32.698 5.724 32.904 5.638 33.108 5.549 32.887 5.417 32.611 5.475 32.364 5.464 30.983 5.497 29.62 5.806 28.235 5.765 27.973 5.757 27.709 5.778 27.449 5.752 27.102 5.687 26.747 5.635 26.42 5.498 26.548 5.373 26.876 5.338 27.087 5.267 28.066 5.008 29.082 4.861 30.019 4.463 30.232 4.358 30.461 4.269 30.644 4.117 30.368 4.017 30.053 4.038 29.76 4.015 29.576 4.011 29.391 4.007 29.208 4.027Z" fill-rule="evenodd"></path><path transform="matrix(0.816527,0,0,0.816527,22.284273,25.336751)" stroke="#000000" fill="none" d="M54.463 41.329C55.09 41.395 55.72 41.455 56.341 41.564 56.191 41.772 55.948 41.922 55.705 42.011 55.345 42.154 54.966 42.245 54.612 42.401 54.549 42.478 54.364 42.622 54.396 42.704 54.862 42.91 55.366 43.031 55.875 43.055 56.084 43.07 56.292 43.084 56.501 43.099 56.153 43.368 55.724 43.514 55.302 43.625 54.398 43.838 53.458 43.791 52.538 43.732 51.367 43.63 50.213 43.342 49.12 42.913 48.965 42.855 49.334 42.776 49.395 42.743 50.345 42.481 51.361 42.539 52.296 42.209 52.239 41.997 52.105 41.784 52.192 41.555 52.246 41.475 52.202 41.279 52.326 41.276 52.896 41.218 53.471 41.271 54.041 41.296 54.182 41.305 54.322 41.316 54.463 41.329Z" fill-rule="evenodd"></path><path transform="matrix(0.816527,0,0,0.816527,22.284273,25.336751)" stroke="#000000" fill="none" d="M32.584 7.047C30.413 7.28 28.258 7.648 26.109 8.032 25.118 8.21 24.144 8.466 23.175 8.735 22.676 8.74 22.177 8.728 21.684 8.644 20.329 8.45 18.963 8.193 17.589 8.345 17.09 8.392 16.597 8.483 16.105 8.578 16.192 8.741 16.311 8.895 16.501 8.942 17.313 9.206 18.154 9.369 18.982 9.577 19.835 9.773 20.685 9.989 21.545 10.154 22.017 10.191 22.491 10.169 22.962 10.149 23.858 10 24.754 9.82 25.666 9.82 26.72 9.8 27.792 9.726 28.786 9.347 29.916 8.93 30.985 8.364 32.029 7.769 32.358 7.566 32.709 7.385 32.988 7.115 33.121 6.981 32.911 7.041 32.828 7.033 32.746 7.036 32.665 7.04 32.584 7.047Z" fill-rule="evenodd"></path><path transform="matrix(0.816527,0,0,0.816527,22.284273,25.336751)" stroke="#000000" fill="none" d="M52.654 12.838C53.072 12.973 53.464 13.297 53.53 13.754 53.576 14 53.623 14.44 53.247 14.344 52.693 14.352 52.095 14.305 51.642 13.95 51.461 13.815 51.328 13.621 51.243 13.417L51.218 12.909C51.531 12.787 51.867 12.734 52.202 12.767 52.355 12.776 52.508 12.792 52.654 12.838Z" fill-rule="evenodd"></path><path transform="matrix(0.816527,0,0,0.816527,33.674818,25.349677)" stroke="none" fill="#000000" d="M28.71 58.833C28.074 59 27.491 59.32 26.856 59.494 26.462 59.619 25.984 59.757 25.821 60.183 25.594 60.515 26.049 60.525 26.278 60.533 27.356 60.602 28.364 59.921 28.911 59.025 28.988 58.928 29.103 58.742 28.878 58.806 28.821 58.811 28.765 58.82 28.71 58.833ZM37.697 12.769C37.549 12.801 37.406 12.849 37.263 12.897 37.276 13.075 37.272 13.258 37.296 13.433 37.447 13.771 37.735 14.033 38.082 14.161 38.532 14.346 39.032 14.343 39.51 14.32 39.692 14.112 39.583 13.703 39.479 13.448 39.263 13.018 38.771 12.783 38.304 12.761 38.102 12.746 37.897 12.735 37.697 12.769ZM9.732 0.063C10.164 0.774 10.925 1.188 11.668 1.508 12.819 1.981 14.005 2.373 15.209 2.688 15.947 2.889 16.725 2.965 17.485 2.863 17.66 2.851 17.908 2.736 17.668 2.57 17.296 2.193 16.753 2.112 16.288 1.903 15.888 1.744 15.491 1.58 15.092 1.419 15.512 1.337 15.944 1.408 16.367 1.432 17.69 1.565 18.982 1.901 20.279 2.181 21.094 2.381 21.926 2.499 22.762 2.578 23.904 2.716 25.104 2.795 26.124 3.38 26.194 3.432 26.572 3.621 26.381 3.656 25.645 3.797 24.892 3.812 24.146 3.868 23.217 3.936 22.28 3.972 21.367 4.169 21.1 4.247 20.85 4.371 20.593 4.477 21.138 4.603 21.693 4.696 22.251 4.728 23.297 4.773 24.342 4.693 25.385 4.63 26.585 4.562 27.807 4.616 28.963 4.966 29.887 5.238 30.811 5.528 31.773 5.629 32.989 5.795 34.245 5.791 35.412 6.215 36.354 6.549 37.276 7.046 37.934 7.814 38.282 8.23 38.516 8.83 38.272 9.355 37.982 9.967 37.342 10.301 36.743 10.548 35.305 11.093 33.755 11.253 32.227 11.296 30.696 11.347 29.143 11.235 27.633 11.552 27.149 11.66 26.676 11.833 26.247 12.083 26.211 12.211 26.589 12.155 26.712 12.194 29.071 12.39 31.448 12.344 33.794 12.677 34.606 12.807 35.426 12.966 36.181 13.299 36.322 13.321 36.226 13.444 36.211 13.533 36.033 14.162 35.502 14.632 34.899 14.848 34.727 14.88 34.551 14.989 34.788 15.102 34.987 15.264 35.233 15.359 35.445 15.494 35.59 15.678 35.678 15.903 35.658 16.14 35.666 16.454 35.593 16.768 35.63 17.079 36.034 17.238 36.473 17.287 36.897 17.373 37.648 17.512 38.429 17.581 39.131 17.901 39.577 18.153 39.773 18.665 40.159 18.985 40.8 19.568 41.638 19.923 42.173 20.621 42.666 21.291 42.351 22.357 41.59 22.678 40.917 23.004 40.124 23.025 39.49 23.44 39.259 23.588 39.176 23.902 38.893 23.98 38.036 24.258 37.118 24.27 36.255 24.525 35.942 24.617 35.623 24.685 35.311 24.777 36.067 25.159 36.93 25.338 37.627 25.84 37.989 26.107 38.267 26.501 38.332 26.952 38.424 27.218 38.691 27.375 38.873 27.578 39.194 27.9 39.589 28.25 39.6 28.738 39.62 29.185 39.22 29.479 38.866 29.665 38.049 30.082 37.129 30.223 36.236 30.386 35.55 30.512 34.852 30.572 34.172 30.728 34.066 30.819 34.453 30.822 34.544 30.867 35.466 31.073 36.418 31.216 37.283 31.614 37.773 31.845 38.196 32.221 38.44 32.709 38.636 33.11 38.86 33.514 39.23 33.782 39.708 34.163 40.259 34.454 40.691 34.893 40.51 35.381 40.113 35.755 39.658 35.992 39.585 36.039 39.466 36.065 39.528 36.173 39.604 36.532 39.837 36.909 39.682 37.277 39.449 37.714 38.911 37.844 38.455 37.88 37.156 37.973 35.865 37.748 34.588 37.54 34.433 37.589 34.666 37.927 34.682 38.08 34.86 38.632 35.15 39.153 35.232 39.732 35.274 40.059 35.197 40.434 34.898 40.62 34.505 40.904 34.003 40.941 33.556 41.093 33.278 41.146 33.031 41.301 32.877 41.541 32.624 41.894 32.443 42.349 32.003 42.511 31.354 42.771 30.636 42.735 29.95 42.72 28.975 42.669 27.997 42.614 27.022 42.697 26.779 42.713 26.536 42.727 26.293 42.747 26.578 43.022 26.92 43.241 27.293 43.377 27.535 43.519 27.685 43.776 27.883 43.97 28.034 44.21 28.303 44.248 28.561 44.284 29.64 44.512 30.666 44.95 31.633 45.473 32.182 45.792 32.772 46.124 33.109 46.684 33.01 46.89 32.687 46.985 32.462 47.06 32.16 47.127 31.856 47.214 31.543 47.2 30.287 47.224 29.03 47.214 27.775 47.285 27.56 47.299 27.347 47.328 27.134 47.361 27.859 47.823 28.695 48.117 29.336 48.707 30.129 49.412 30.81 50.23 31.498 51.034 31.921 51.562 32.388 52.091 32.616 52.737 32.612 52.898 32.626 53.062 32.611 53.221 32.397 53.704 32.07 54.125 31.777 54.563 32.213 54.865 32.589 55.381 32.49 55.937 32.356 56.619 31.765 57.11 31.157 57.38 30.339 57.7 29.471 57.863 28.62 58.067 27.811 58.255 26.992 58.408 26.199 58.655 25.733 58.851 25.397 59.265 24.923 59.449 24.016 59.823 23.036 59.969 22.105 60.269 21.788 60.372 21.458 60.476 21.201 60.698 21.445 60.967 21.711 61.218 22.032 61.392 22.327 61.571 22.637 61.734 22.89 61.971 22.54 62.553 21.882 62.846 21.255 63.028 19.922 63.404 18.526 63.413 17.153 63.423 16.507 63.429 15.862 63.435 15.217 63.442 15.297 63.724 15.291 64.044 15.177 64.315 14.946 64.723 14.469 64.855 14.039 64.937 13.813 64.99 13.577 64.951 13.346 64.963 11.361 64.982 9.328 64.717 7.529 63.834 6.397 63.304 5.277 62.715 4.048 62.441 2.938 62.177 1.795 62.01 0.652 62.052 0.454 62.078 0.059 62.072 0 62.212 1.37 63.069 2.772 63.875 4.124 64.76 4.862 65.231 5.672 65.605 6.54 65.753 7.39 65.898 8.245 66.016 9.087 66.209 11.068 66.633 13.014 67.215 15.006 67.587 16.465 67.843 17.953 68.002 19.434 67.889 20.609 67.794 21.694 67.291 22.822 66.992 23.803 66.722 24.81 66.482 25.835 66.513 27.163 66.511 28.491 66.84 29.817 66.614 30.493 66.52 31.156 66.326 31.839 66.283 31.999 66.282 31.712 66.507 31.656 66.559 30.793 67.267 29.667 67.499 28.597 67.697 27.501 67.892 26.39 68.017 25.306 68.275 24.924 68.39 24.589 68.66 24.412 69.02 26.07 68.982 27.723 68.849 29.38 68.815 30.143 68.792 30.926 68.751 31.635 68.437 32.976 67.866 34.292 67.169 35.748 66.938 36.641 66.782 37.55 66.68 38.403 66.356 39.675 65.892 40.869 65.247 42.093 64.674 44.145 63.677 46.211 62.711 48.248 61.684 49.177 61.203 50.077 60.65 50.869 59.964 51.557 59.353 52.16 58.549 52.263 57.61 52.315 57.144 52.17 56.642 51.796 56.341 51.668 56.408 51.546 56.584 51.455 56.715 50.969 57.482 50.652 58.358 50.037 59.04 49.368 59.858 48.536 60.549 47.574 60.993 46.7 61.392 45.779 61.676 44.901 62.065 43.253 62.766 41.735 63.728 40.128 64.513 38.979 65.068 37.725 65.404 36.45 65.487 35.753 65.527 35.05 65.534 34.355 65.46 34.35 65.369 34.559 65.225 34.656 65.15 34.907 64.966 35.172 64.803 35.431 64.631 34.859 64.55 34.278 64.623 33.704 64.659 31.999 64.813 30.343 65.311 28.634 65.433 28.005 65.472 27.373 65.433 26.75 65.335 25.658 65.191 24.565 65.421 23.503 65.656 22.044 65.991 20.611 66.438 19.134 66.694 18.496 66.781 17.817 66.879 17.197 66.647 16.911 66.553 16.681 66.251 16.779 65.945 16.93 65.469 17.387 65.185 17.802 64.959 18.653 64.511 19.626 64.416 20.559 64.249 22.526 63.926 24.542 63.719 26.406 62.971 26.535 62.908 26.742 62.846 26.82 62.761 26.586 62.514 26.307 62.312 25.987 62.19 25.354 61.906 24.623 61.8 24.089 61.329 23.976 61.23 24.194 61.295 24.255 61.282 25.611 61.324 26.969 61.44 28.294 61.744 29.124 61.927 29.983 62.004 30.827 61.878 32.078 61.708 33.301 61.384 34.524 61.079 35.433 60.83 36.355 60.617 37.236 60.279 37.368 60.229 37.813 60.055 37.439 60.005 36.87 59.82 36.294 59.655 35.727 59.464 35.883 59.371 36.183 59.381 36.394 59.33 38.711 58.994 40.99 58.398 43.171 57.543 44.332 57.084 45.483 56.593 46.591 56.017 47.986 55.276 49.318 54.275 50.086 52.863 50.436 52.229 50.655 51.528 50.764 50.814 50.43 51.136 50.087 51.451 49.759 51.778 49.389 52.413 49.063 53.082 48.566 53.631 47.443 54.915 45.944 55.801 44.406 56.5 42.498 57.346 40.472 57.93 38.404 58.219 37.02 58.419 35.608 58.323 34.228 58.56 33.767 58.659 33.267 58.829 32.984 59.231 32.875 59.386 32.853 59.576 32.838 59.76 33.062 59.923 33.285 60.094 33.523 60.23L34.285 60.364C33.253 60.644 32.211 60.948 31.135 60.981 30.566 60.993 29.939 60.882 29.54 60.44 29.463 60.37 29.538 60.24 29.527 60.146 29.623 59.575 30.137 59.204 30.61 58.941 31.682 58.379 32.887 58.097 34.091 58.032 35.157 57.975 36.23 57.951 37.28 57.741 38.767 57.452 40.255 57.057 41.599 56.342 42.017 56.121 42.4 55.837 42.737 55.505 42.285 55.554 41.868 55.758 41.447 55.917 40.628 56.292 39.798 56.72 38.885 56.796 38.606 56.806 38.322 56.817 38.044 56.799 37.76 56.728 37.481 56.635 37.219 56.502 37.232 56.061 37.331 55.579 37.693 55.288 38.171 54.916 38.811 54.881 39.394 54.869 40.87 54.829 42.369 54.941 43.815 54.575 45.355 54.217 46.722 53.348 47.896 52.312 48.878 51.454 49.756 50.484 50.735 49.624 51.385 49.14 52.04 48.63 52.512 47.962 52.804 47.498 53.054 46.918 52.871 46.367 52.791 46.083 52.64 45.824 52.437 45.611 51.796 46.257 51.149 46.901 50.606 47.634 49.751 48.741 48.967 49.926 47.878 50.824 46.762 51.765 45.456 52.469 44.084 52.957 42.653 53.437 41.131 53.502 39.637 53.6 38.688 53.661 37.69 53.664 36.825 54.114 36.453 54.311 36.006 54.51 35.85 54.933 35.759 55.36 35.821 55.8 35.82 56.233 35.803 56.306 35.879 56.485 35.75 56.429 35.402 56.403 35.119 56.185 34.88 55.95 34.643 55.72 34.322 55.616 34.065 55.417 33.945 55.301 33.863 55.143 33.809 54.99 33.813 54.673 33.908 54.352 34.144 54.129 34.52 53.74 35.048 53.556 35.473 53.234 35.169 53.007 34.811 52.863 34.493 52.656 35.836 52.556 37.184 52.527 38.523 52.393 38.994 52.333 39.46 52.227 39.919 52.111 40.396 51.899 40.882 51.707 41.348 51.471 40.709 51.486 40.07 51.538 39.431 51.518 38.674 51.518 37.92 51.449 37.177 51.31 37.038 51.284 36.651 51.258 36.968 51.129 37.707 50.723 38.574 50.706 39.388 50.569 41.706 50.2 43.992 49.603 46.178 48.746 47.707 48.128 49.223 47.394 50.475 46.301 51.104 45.731 51.642 45.056 52.068 44.321 52.461 43.63 52.711 42.777 52.416 42.002 52.278 41.631 52.032 41.307 51.752 41.031 51.53 41.115 51.459 41.512 51.295 41.715 50.861 42.451 50.095 42.89 49.381 43.314 48.92 43.593 48.422 43.838 48.041 44.227 48.01 44.294 48.259 44.212 48.324 44.224 49.283 44.081 50.215 43.765 51.075 43.319 51.242 43.286 51.002 43.637 50.984 43.744 50.502 44.758 49.676 45.559 48.811 46.254 47.712 47.108 46.491 47.819 45.175 48.281 44.837 48.396 44.489 48.485 44.134 48.528 45.034 48.049 45.974 47.577 46.67 46.813 46.712 46.75 47.011 46.436 46.835 46.48 46.162 46.699 45.522 47.012 44.871 47.287 42.664 48.265 40.41 49.185 38.04 49.685 36.911 49.927 35.75 50.048 34.597 49.953 33.67 49.901 32.748 49.665 31.929 49.225 31.796 49.172 31.797 49.129 31.94 49.106 32.774 48.971 33.626 49.005 34.464 48.898 37.105 48.613 39.68 47.897 42.181 47.022 43.301 46.619 44.423 46.22 45.527 45.773 45.6 45.644 45.693 45.523 45.744 45.382 45.414 45.312 45.066 45.322 44.731 45.353 43.956 45.458 43.272 45.87 42.545 46.129 40.203 47.038 37.724 47.614 35.214 47.754 34.914 47.772 34.614 47.76 34.316 47.728 35.25 47.294 36.249 47.02 37.228 46.708 37.081 46.498 36.775 46.456 36.531 46.43 35.164 46.307 33.771 45.948 32.648 45.129 32.591 45.024 32.941 45.145 33.042 45.138 35.234 45.481 37.487 45.609 39.683 45.227 40.923 45.011 42.13 44.611 43.256 44.049 44.049 43.657 44.845 43.267 45.68 42.973 47.153 42.41 48.7 41.959 50.002 41.04 51.103 40.286 51.93 39.186 52.467 37.973 53.275 36.165 53.622 34.2 53.992 32.268 54.133 31.568 54.11 30.849 54.087 30.139 54.009 29.385 53.761 28.662 53.603 27.923 53.32 26.775 53.222 25.595 53.136 24.419 53.055 23.367 52.91 22.314 52.585 21.307 51.691 18.339 50.493 15.45 48.875 12.801 47.797 11.067 46.545 9.419 45.01 8.063 43.882 7.064 42.507 6.392 41.104 5.87 38.695 4.993 36.134 4.706 33.616 4.315 32.853 4.189 32.072 4.068 31.381 3.701 30.089 3.102 28.718 2.697 27.355 2.294 25.87 1.875 24.379 1.468 22.864 1.171 20.806 0.788 18.706 0.749 16.621 0.628 14.574 0.528 12.523 0.412 10.495 0.101 10.243 0.08 9.915-0.022 9.709 0.004L9.719 0.031 9.732 0.063ZM38.472 41.244C38.371 41.244 38.285 41.261 38.288 41.381 38.216 41.593 38.183 41.834 38.306 42.035 38.46 42.31 37.977 42.252 37.817 42.337 36.998 42.524 36.14 42.501 35.337 42.759 35.243 42.799 35.002 42.869 35.22 42.912 36.606 43.449 38.087 43.756 39.576 43.758 40.562 43.781 41.602 43.688 42.459 43.156 42.613 43.072 42.504 43.068 42.389 43.067 41.85 43.03 41.301 43.009 40.79 42.815 40.711 42.75 40.328 42.744 40.478 42.597 40.579 42.419 40.754 42.317 40.95 42.27 41.426 42.091 41.967 42.005 42.338 41.626 42.463 41.44 41.95 41.517 41.806 41.454 40.72 41.315 39.626 41.206 38.53 41.239L38.472 41.244ZM39.433 7.051C40.999 7.488 42.436 8.299 43.754 9.237 44.885 10.041 45.885 11.017 46.759 12.093 47.656 13.196 48.507 14.35 49.157 15.619 49.329 15.99 49.515 16.365 49.586 16.771 47.563 15.125 45.34 13.681 42.886 12.766 41.867 12.384 40.792 12.171 39.71 12.077 39.234 12.004 38.709 12 38.306 11.706 38.246 11.614 38.016 11.525 38.081 11.408 38.229 11.151 38.537 11.026 38.825 11.053 39.209 11.065 39.593 11.074 39.975 11.031 40.204 10.851 40.266 10.548 40.386 10.295 40.914 10.289 41.443 10.284 41.972 10.279 42.006 9.831 41.822 9.391 41.518 9.066 40.828 8.316 39.878 7.873 39.166 7.149 39.09 7.06 38.937 6.861 39.164 6.979 39.254 7.003 39.344 7.027 39.433 7.051ZM40.972 13.389C43.516 13.959 45.95 15.044 48.056 16.584 48.878 17.192 49.658 17.869 50.295 18.674 50.651 19.105 50.991 19.55 51.362 19.969 51.393 20.084 51.078 19.95 50.968 19.954 50.685 19.899 50.402 19.842 50.118 19.791 50.493 20.304 50.989 20.715 51.357 21.234 51.679 21.735 51.946 22.278 52.115 22.85 52.229 23.112 52.11 23.41 51.839 23.51 51.584 23.655 51.314 23.824 51.175 24.09 51.212 24.419 51.487 24.658 51.701 24.89 52.016 25.212 52.368 25.533 52.491 25.983 52.694 26.534 52.647 27.132 52.636 27.708 52.621 27.989 52.265 27.631 52.11 27.598 51.057 27.042 50.046 26.412 49.001 25.843 47.952 25.318 46.838 24.944 45.747 24.52 45.059 24.249 44.35 24.022 43.693 23.681 43.453 23.541 43.207 23.309 43.249 23.005 43.223 22.794 43.312 22.604 43.554 22.695 44.669 22.766 45.672 23.298 46.702 23.677 47.146 23.841 47.6 23.996 48.068 24.07 48.031 23.898 47.76 23.716 47.61 23.561 47.217 23.234 46.747 23.018 46.309 22.758 45.423 22.274 44.547 21.709 43.942 20.883 43.621 20.458 43.338 19.993 42.904 19.669 42.27 19.181 41.564 18.794 40.927 18.311 41.408 18.322 41.874 18.47 42.338 18.583 43.418 18.857 44.43 19.384 45.269 20.116 46.25 20.937 47.117 21.944 48.314 22.461 48.385 22.471 48.562 22.629 48.521 22.48 48.505 22.113 48.447 21.732 48.217 21.432 47.191 20.019 45.706 19.016 44.169 18.23 42.014 17.138 39.697 16.428 37.432 15.608 37.219 15.516 37.668 15.499 37.759 15.474 38.517 15.359 39.288 15.398 40.042 15.524 40.815 15.634 41.59 15.778 42.374 15.764 42.36 15.437 42.357 15.074 42.106 14.828 41.685 14.387 41.09 14.173 40.637 13.774 40.509 13.629 40.408 13.458 40.359 13.271 40.565 13.301 40.769 13.345 40.972 13.389ZM40.396 25.209C42.259 25.62 44.121 26.047 45.946 26.606 47.789 27.173 49.625 27.814 51.321 28.743 52.045 29.158 52.787 29.615 53.278 30.307 53.465 30.578 53.58 30.929 53.47 31.253 53.224 31.311 52.962 31.243 52.715 31.212 51.841 31.041 50.99 30.715 50.089 30.723 49.159 30.712 48.232 30.619 47.306 30.545 46.126 30.522 44.945 30.53 43.766 30.47 43.016 30.403 42.221 30.267 41.608 29.795 41.363 29.598 41.157 29.311 41.135 28.989 41.19 28.71 41.527 28.629 41.763 28.557 42.49 28.401 43.238 28.417 43.977 28.386 43.828 28.158 43.608 27.976 43.337 27.92 42.863 27.809 42.369 27.832 41.892 27.736 41.334 27.632 40.747 27.529 40.266 27.209 39.996 27.026 40.055 26.663 39.958 26.388 39.9 26.119 39.735 25.858 39.449 25.797 39.238 25.74 39.084 25.583 38.929 25.44 39.271 25.277 39.623 25.044 40.02 25.133 40.147 25.152 40.272 25.18 40.396 25.209ZM39.906 31.309C40.8 31.514 41.664 31.852 42.582 31.948 43.561 32.068 44.55 32.13 45.516 32.343 46.805 32.599 48.105 32.876 49.426 32.845 50.33 32.844 51.234 32.765 52.137 32.774 52.265 32.77 52.069 32.89 52.042 32.945 51.377 33.653 50.441 34.012 49.532 34.292 48.394 34.621 47.216 34.858 46.027 34.818 44.97 34.791 43.902 34.732 42.878 34.453 42.645 34.365 42.314 34.304 42.238 34.03 42.209 33.701 42.618 33.626 42.861 33.559 43.054 33.506 43.361 33.513 43.464 33.345 43.126 33.123 42.721 33.026 42.319 33.026 41.911 33.003 41.501 33.006 41.094 32.982 40.636 32.842 40.267 32.519 39.863 32.275 39.399 31.967 38.927 31.67 38.443 31.395 38.371 31.244 38.834 31.28 38.974 31.226 39.286 31.225 39.599 31.255 39.906 31.309ZM52.846 33.507C52.81 33.713 52.732 33.916 52.767 34.128 52.79 34.644 52.869 35.169 52.731 35.678 52.448 36.837 51.777 37.869 50.984 38.746 49.791 40.034 48.172 40.984 46.408 41.174 45.692 41.253 44.964 41.222 44.255 41.094 43.972 41.023 44.446 40.923 44.542 40.866 45.139 40.636 45.746 40.429 46.355 40.236 46.316 40.03 46.056 40.02 45.885 39.952 45.696 39.96 45.503 40.013 45.312 40.038 43.429 40.36 41.483 40.508 39.597 40.132 38.599 39.924 37.6 39.549 36.836 38.855 37.349 38.919 37.869 38.932 38.386 38.959 39.72 38.995 41.056 39.016 42.39 38.955 43.762 38.84 45.161 38.683 46.44 38.137 47.009 37.887 47.556 37.539 47.924 37.028 46.842 37.045 45.763 37.146 44.684 37.213 43.768 37.251 42.823 37.304 41.938 37.02 41.791 36.949 41.507 36.899 41.457 36.743 41.529 36.495 41.694 36.27 41.949 36.191 42.643 35.96 43.377 35.877 44.103 35.82 45.333 35.722 46.574 35.751 47.794 35.55 49.224 35.311 50.611 34.775 51.788 33.922 52.176 33.658 52.516 33.328 52.914 33.078 52.935 33.181 52.863 33.378 52.846 33.507Z" fill-rule="evenodd"></path><path transform="matrix(0.816527,0,0,0.816527,22.284273,25.826667)" stroke="#000000" fill="none" d="M42.978 58.836C42.701 59.351 42.306 59.813 41.8 60.115 41.303 60.443 40.699 60.609 40.104 60.538 39.88 60.548 39.576 60.464 39.771 60.198 39.934 59.772 40.412 59.634 40.806 59.509 41.433 59.337 42.009 59.023 42.636 58.854 42.743 58.838 42.875 58.787 42.978 58.836Z" fill-rule="evenodd"></path><path transform="matrix(0.816527,0,0,0.816527,22.284273,25.336751)" stroke="none" fill="#000000" d="M65.224 53.119C64.785 53.418 64.623 53.953 64.35 54.384 63.66 55.579 62.594 56.496 61.497 57.306 59.476 58.764 57.224 59.879 54.901 60.765 53.824 61.178 52.718 61.516 51.593 61.769 50.87 61.94 50.151 62.128 49.434 62.321 48.494 62.483 47.537 62.526 46.595 62.676 45.611 62.831 44.603 62.998 43.711 63.462 43.505 63.569 43.324 63.715 43.144 63.859 43.755 63.924 44.373 63.843 44.973 63.73 46.348 63.441 47.711 63.039 49.125 62.986 49.964 62.942 50.805 62.959 51.644 62.942 53.09 62.694 54.419 62.043 55.738 61.432 56.614 61.006 57.499 60.596 58.423 60.283 59.764 59.796 61.159 59.377 62.346 58.562 62.991 58.074 63.563 57.495 64.104 56.895 64.771 56.139 65.408 55.313 65.7 54.333 65.738 54.17 65.708 53.996 65.719 53.829 65.725 53.722 65.727 53.615 65.663 53.523 65.589 53.343 65.47 53.186 65.325 53.057L65.224 53.119Z" fill-rule="evenodd"></path></svg>